<svg xmlns="http://www.w3.org/2000/svg" width="1000" height="50">
<rect x="0" y="0" width="10" height="10" style="fill:rgb(255,192,203)"/>
<rect x="10" y="0" width="10" height="10" style="fill:rgb(255,192,203)"/>
<rect x="20" y="0" width="10" height="10" style="fill:rgb(32,148,52)"/>
<rect x="30" y="0" width="10" height="10" style="fill:rgb(32,148,52)"/>
<rect x="40" y="0" width="10" height="10" style="fill:rgb(32,148,52)"/>
<rect x="50" y="0" width="10" height="10" style="fill:rgb(112,90,69)"/>
<rect x="60" y="0" width="10" height="10" style="fill:rgb(112,90,69)"/>
<rect x="70" y="0" width="10" height="10" style="fill:rgb(61,35,112)"/>
<rect x="0" y="10" width="10" height="10" style="fill:rgb(255,192,203)"/>
<rect x="10" y="10" width="10" height="10" style="fill:rgb(255,192,203)"/>
<rect x="20" y="10" width="10" height="10" style="fill:rgb(255,192,203)"/>
<rect x="30" y="10" width="10" height="10" style="fill:rgb(32,148,52)"/>
<rect x="40" y="10" width="10" height="10" style="fill:rgb(112,90,69)"/>
<rect x="50" y="10" width="10" height="10" style="fill:rgb(112,90,69)"/>
<rect x="60" y="10" width="10" height="10" style="fill:rgb(61,35,112)"/>
<rect x="70" y="10" width="10" height="10" style="fill:rgb(61,35,112)"/>
<rect x="0" y="20" width="10" height="10" style="fill:rgb(223,207,59)"/>
<rect x="10" y="20" width="10" height="10" style="fill:rgb(223,207,59)"/>
<rect x="20" y="20" width="10" height="10" style="fill:rgb(223,207,59)"/>
<rect x="30" y="20" width="10" height="10" style="fill:rgb(32,148,52)"/>
<rect x="40" y="20" width="10" height="10" style="fill:rgb(112,90,69)"/>
<rect x="50" y="20" width="10" height="10" style="fill:rgb(11,115,104)"/>
<rect x="60" y="20" width="10" height="10" style="fill:rgb(61,35,112)"/>
<rect x="70" y="20" width="10" height="10" style="fill:rgb(19,148,191)"/>
<rect x="0" y="30" width="10" height="10" style="fill:rgb(223,207,59)"/>
<rect x="10" y="30" width="10" height="10" style="fill:rgb(121,68,50)"/>
<rect x="20" y="30" width="10" height="10" style="fill:rgb(223,207,59)"/>
<rect x="30" y="30" width="10" height="10" style="fill:rgb(11,115,104)"/>
<rect x="40" y="30" width="10" height="10" style="fill:rgb(11,115,104)"/>
<rect x="50" y="30" width="10" height="10" style="fill:rgb(11,115,104)"/>
<rect x="60" y="30" width="10" height="10" style="fill:rgb(61,35,112)"/>
<rect x="70" y="30" width="10" height="10" style="fill:rgb(19,148,191)"/>
<rect x="0" y="40" width="10" height="10" style="fill:rgb(121,68,50)"/>
<rect x="10" y="40" width="10" height="10" style="fill:rgb(121,68,50)"/>
<rect x="20" y="40" width="10" height="10" style="fill:rgb(121,68,50)"/>
<rect x="30" y="40" width="10" height="10" style="fill:rgb(121,68,50)"/>
<rect x="40" y="40" width="10" height="10" style="fill:rgb(11,115,104)"/>
<rect x="50" y="40" width="10" height="10" style="fill:rgb(19,148,191)"/>
<rect x="60" y="40" width="10" height="10" style="fill:rgb(19,148,191)"/>
<rect x="70" y="40" width="10" height="10" style="fill:rgb(19,148,191)"/>
<rect x="88" y="0" width="10" height="10" style="fill:rgb(255,192,203)"/>
<rect x="98" y="0" width="10" height="10" style="fill:rgb(255,192,203)"/>
<rect x="108" y="0" width="10" height="10" style="fill:rgb(112,90,69)"/>
<rect x="118" y="0" width="10" height="10" style="fill:rgb(112,90,69)"/>
<rect x="128" y="0" width="10" height="10" style="fill:rgb(32,148,52)"/>
<rect x="138" y="0" width="10" height="10" style="fill:rgb(32,148,52)"/>
<rect x="148" y="0" width="10" height="10" style="fill:rgb(32,148,52)"/>
<rect x="158" y="0" width="10" height="10" style="fill:rgb(61,35,112)"/>
<rect x="88" y="10" width="10" height="10" style="fill:rgb(255,192,203)"/>
<rect x="98" y="10" width="10" height="10" style="fill:rgb(255,192,203)"/>
<rect x="108" y="10" width="10" height="10" style="fill:rgb(255,192,203)"/>
<rect x="118" y="10" width="10" height="10" style="fill:rgb(112,90,69)"/>
<rect x="128" y="10" width="10" height="10" style="fill:rgb(112,90,69)"/>
<rect x="138" y="10" width="10" height="10" style="fill:rgb(32,148,52)"/>
<rect x="148" y="10" width="10" height="10" style="fill:rgb(61,35,112)"/>
<rect x="158" y="10" width="10" height="10" style="fill:rgb(61,35,112)"/>
<rect x="88" y="20" width="10" height="10" style="fill:rgb(223,207,59)"/>
<rect x="98" y="20" width="10" height="10" style="fill:rgb(223,207,59)"/>
<rect x="108" y="20" width="10" height="10" style="fill:rgb(223,207,59)"/>
<rect x="118" y="20" width="10" height="10" style="fill:rgb(11,115,104)"/>
<rect x="128" y="20" width="10" height="10" style="fill:rgb(112,90,69)"/>
<rect x="138" y="20" width="10" height="10" style="fill:rgb(32,148,52)"/>
<rect x="148" y="20" width="10" height="10" style="fill:rgb(61,35,112)"/>
<rect x="158" y="20" width="10" height="10" style="fill:rgb(19,148,191)"/>
<rect x="88" y="30" width="10" height="10" style="fill:rgb(223,207,59)"/>
<rect x="98" y="30" width="10" height="10" style="fill:rgb(121,68,50)"/>
<rect x="108" y="30" width="10" height="10" style="fill:rgb(223,207,59)"/>
<rect x="118" y="30" width="10" height="10" style="fill:rgb(11,115,104)"/>
<rect x="128" y="30" width="10" height="10" style="fill:rgb(11,115,104)"/>
<rect x="138" y="30" width="10" height="10" style="fill:rgb(11,115,104)"/>
<rect x="148" y="30" width="10" height="10" style="fill:rgb(61,35,112)"/>
<rect x="158" y="30" width="10" height="10" style="fill:rgb(19,148,191)"/>
<rect x="88" y="40" width="10" height="10" style="fill:rgb(121,68,50)"/>
<rect x="98" y="40" width="10" height="10" style="fill:rgb(121,68,50)"/>
<rect x="108" y="40" width="10" height="10" style="fill:rgb(121,68,50)"/>
<rect x="118" y="40" width="10" height="10" style="fill:rgb(121,68,50)"/>
<rect x="128" y="40" width="10" height="10" style="fill:rgb(11,115,104)"/>
<rect x="138" y="40" width="10" height="10" style="fill:rgb(19,148,191)"/>
<rect x="148" y="40" width="10" height="10" style="fill:rgb(19,148,191)"/>
<rect x="158" y="40" width="10" height="10" style="fill:rgb(19,148,191)"/>
<rect x="176" y="0" width="10" height="10" style="fill:rgb(32,148,52)"/>
<rect x="186" y="0" width="10" height="10" style="fill:rgb(19,148,191)"/>
<rect x="196" y="0" width="10" height="10" style="fill:rgb(19,148,191)"/>
<rect x="206" y="0" width="10" height="10" style="fill:rgb(19,148,191)"/>
<rect x="216" y="0" width="10" height="10" style="fill:rgb(255,192,203)"/>
<rect x="226" y="0" width="10" height="10" style="fill:rgb(255,192,203)"/>
<rect x="236" y="0" width="10" height="10" style="fill:rgb(255,192,203)"/>
<rect x="246" y="0" width="10" height="10" style="fill:rgb(61,35,112)"/>
<rect x="176" y="10" width="10" height="10" style="fill:rgb(32,148,52)"/>
<rect x="186" y="10" width="10" height="10" style="fill:rgb(32,148,52)"/>
<rect x="196" y="10" width="10" height="10" style="fill:rgb(32,148,52)"/>
<rect x="206" y="10" width="10" height="10" style="fill:rgb(19,148,191)"/>
<rect x="216" y="10" width="10" height="10" style="fill:rgb(11,115,104)"/>
<rect x="226" y="10" width="10" height="10" style="fill:rgb(255,192,203)"/>
<rect x="236" y="10" width="10" height="10" style="fill:rgb(255,192,203)"/>
<rect x="246" y="10" width="10" height="10" style="fill:rgb(61,35,112)"/>
<rect x="176" y="20" width="10" height="10" style="fill:rgb(32,148,52)"/>
<rect x="186" y="20" width="10" height="10" style="fill:rgb(112,90,69)"/>
<rect x="196" y="20" width="10" height="10" style="fill:rgb(112,90,69)"/>
<rect x="206" y="20" width="10" height="10" style="fill:rgb(19,148,191)"/>
<rect x="216" y="20" width="10" height="10" style="fill:rgb(11,115,104)"/>
<rect x="226" y="20" width="10" height="10" style="fill:rgb(11,115,104)"/>
<rect x="236" y="20" width="10" height="10" style="fill:rgb(61,35,112)"/>
<rect x="246" y="20" width="10" height="10" style="fill:rgb(61,35,112)"/>
<rect x="176" y="30" width="10" height="10" style="fill:rgb(112,90,69)"/>
<rect x="186" y="30" width="10" height="10" style="fill:rgb(112,90,69)"/>
<rect x="196" y="30" width="10" height="10" style="fill:rgb(121,68,50)"/>
<rect x="206" y="30" width="10" height="10" style="fill:rgb(11,115,104)"/>
<rect x="216" y="30" width="10" height="10" style="fill:rgb(11,115,104)"/>
<rect x="226" y="30" width="10" height="10" style="fill:rgb(223,207,59)"/>
<rect x="236" y="30" width="10" height="10" style="fill:rgb(61,35,112)"/>
<rect x="246" y="30" width="10" height="10" style="fill:rgb(223,207,59)"/>
<rect x="176" y="40" width="10" height="10" style="fill:rgb(112,90,69)"/>
<rect x="186" y="40" width="10" height="10" style="fill:rgb(121,68,50)"/>
<rect x="196" y="40" width="10" height="10" style="fill:rgb(121,68,50)"/>
<rect x="206" y="40" width="10" height="10" style="fill:rgb(121,68,50)"/>
<rect x="216" y="40" width="10" height="10" style="fill:rgb(121,68,50)"/>
<rect x="226" y="40" width="10" height="10" style="fill:rgb(223,207,59)"/>
<rect x="236" y="40" width="10" height="10" style="fill:rgb(223,207,59)"/>
<rect x="246" y="40" width="10" height="10" style="fill:rgb(223,207,59)"/>
<rect x="264" y="0" width="10" height="10" style="fill:rgb(19,148,191)"/>
<rect x="274" y="0" width="10" height="10" style="fill:rgb(19,148,191)"/>
<rect x="284" y="0" width="10" height="10" style="fill:rgb(19,148,191)"/>
<rect x="294" y="0" width="10" height="10" style="fill:rgb(32,148,52)"/>
<rect x="304" y="0" width="10" height="10" style="fill:rgb(255,192,203)"/>
<rect x="314" y="0" width="10" height="10" style="fill:rgb(255,192,203)"/>
<rect x="324" y="0" width="10" height="10" style="fill:rgb(255,192,203)"/>
<rect x="334" y="0" width="10" height="10" style="fill:rgb(61,35,112)"/>
<rect x="264" y="10" width="10" height="10" style="fill:rgb(19,148,191)"/>
<rect x="274" y="10" width="10" height="10" style="fill:rgb(32,148,52)"/>
<rect x="284" y="10" width="10" height="10" style="fill:rgb(32,148,52)"/>
<rect x="294" y="10" width="10" height="10" style="fill:rgb(32,148,52)"/>
<rect x="304" y="10" width="10" height="10" style="fill:rgb(11,115,104)"/>
<rect x="314" y="10" width="10" height="10" style="fill:rgb(255,192,203)"/>
<rect x="324" y="10" width="10" height="10" style="fill:rgb(255,192,203)"/>
<rect x="334" y="10" width="10" height="10" style="fill:rgb(61,35,112)"/>
<rect x="264" y="20" width="10" height="10" style="fill:rgb(19,148,191)"/>
<rect x="274" y="20" width="10" height="10" style="fill:rgb(112,90,69)"/>
<rect x="284" y="20" width="10" height="10" style="fill:rgb(112,90,69)"/>
<rect x="294" y="20" width="10" height="10" style="fill:rgb(32,148,52)"/>
<rect x="304" y="20" width="10" height="10" style="fill:rgb(11,115,104)"/>
<rect x="314" y="20" width="10" height="10" style="fill:rgb(11,115,104)"/>
<rect x="324" y="20" width="10" height="10" style="fill:rgb(61,35,112)"/>
<rect x="334" y="20" width="10" height="10" style="fill:rgb(61,35,112)"/>
<rect x="264" y="30" width="10" height="10" style="fill:rgb(112,90,69)"/>
<rect x="274" y="30" width="10" height="10" style="fill:rgb(112,90,69)"/>
<rect x="284" y="30" width="10" height="10" style="fill:rgb(121,68,50)"/>
<rect x="294" y="30" width="10" height="10" style="fill:rgb(11,115,104)"/>
<rect x="304" y="30" width="10" height="10" style="fill:rgb(11,115,104)"/>
<rect x="314" y="30" width="10" height="10" style="fill:rgb(223,207,59)"/>
<rect x="324" y="30" width="10" height="10" style="fill:rgb(61,35,112)"/>
<rect x="334" y="30" width="10" height="10" style="fill:rgb(223,207,59)"/>
<rect x="264" y="40" width="10" height="10" style="fill:rgb(112,90,69)"/>
<rect x="274" y="40" width="10" height="10" style="fill:rgb(121,68,50)"/>
<rect x="284" y="40" width="10" height="10" style="fill:rgb(121,68,50)"/>
<rect x="294" y="40" width="10" height="10" style="fill:rgb(121,68,50)"/>
<rect x="304" y="40" width="10" height="10" style="fill:rgb(121,68,50)"/>
<rect x="314" y="40" width="10" height="10" style="fill:rgb(223,207,59)"/>
<rect x="324" y="40" width="10" height="10" style="fill:rgb(223,207,59)"/>
<rect x="334" y="40" width="10" height="10" style="fill:rgb(223,207,59)"/>
<rect x="352" y="0" width="10" height="10" style="fill:rgb(19,148,191)"/>
<rect x="362" y="0" width="10" height="10" style="fill:rgb(19,148,191)"/>
<rect x="372" y="0" width="10" height="10" style="fill:rgb(19,148,191)"/>
<rect x="382" y="0" width="10" height="10" style="fill:rgb(11,115,104)"/>
<rect x="392" y="0" width="10" height="10" style="fill:rgb(223,207,59)"/>
<rect x="402" y="0" width="10" height="10" style="fill:rgb(223,207,59)"/>
<rect x="412" y="0" width="10" height="10" style="fill:rgb(255,192,203)"/>
<rect x="422" y="0" width="10" height="10" style="fill:rgb(255,192,203)"/>
<rect x="352" y="10" width="10" height="10" style="fill:rgb(19,148,191)"/>
<rect x="362" y="10" width="10" height="10" style="fill:rgb(61,35,112)"/>
<rect x="372" y="10" width="10" height="10" style="fill:rgb(11,115,104)"/>
<rect x="382" y="10" width="10" height="10" style="fill:rgb(11,115,104)"/>
<rect x="392" y="10" width="10" height="10" style="fill:rgb(11,115,104)"/>
<rect x="402" y="10" width="10" height="10" style="fill:rgb(223,207,59)"/>
<rect x="412" y="10" width="10" height="10" style="fill:rgb(255,192,203)"/>
<rect x="422" y="10" width="10" height="10" style="fill:rgb(255,192,203)"/>
<rect x="352" y="20" width="10" height="10" style="fill:rgb(19,148,191)"/>
<rect x="362" y="20" width="10" height="10" style="fill:rgb(61,35,112)"/>
<rect x="372" y="20" width="10" height="10" style="fill:rgb(11,115,104)"/>
<rect x="382" y="20" width="10" height="10" style="fill:rgb(112,90,69)"/>
<rect x="392" y="20" width="10" height="10" style="fill:rgb(223,207,59)"/>
<rect x="402" y="20" width="10" height="10" style="fill:rgb(223,207,59)"/>
<rect x="412" y="20" width="10" height="10" style="fill:rgb(255,192,203)"/>
<rect x="422" y="20" width="10" height="10" style="fill:rgb(32,148,52)"/>
<rect x="352" y="30" width="10" height="10" style="fill:rgb(61,35,112)"/>
<rect x="362" y="30" width="10" height="10" style="fill:rgb(61,35,112)"/>
<rect x="372" y="30" width="10" height="10" style="fill:rgb(112,90,69)"/>
<rect x="382" y="30" width="10" height="10" style="fill:rgb(112,90,69)"/>
<rect x="392" y="30" width="10" height="10" style="fill:rgb(121,68,50)"/>
<rect x="402" y="30" width="10" height="10" style="fill:rgb(32,148,52)"/>
<rect x="412" y="30" width="10" height="10" style="fill:rgb(32,148,52)"/>
<rect x="422" y="30" width="10" height="10" style="fill:rgb(32,148,52)"/>
<rect x="352" y="40" width="10" height="10" style="fill:rgb(61,35,112)"/>
<rect x="362" y="40" width="10" height="10" style="fill:rgb(112,90,69)"/>
<rect x="372" y="40" width="10" height="10" style="fill:rgb(112,90,69)"/>
<rect x="382" y="40" width="10" height="10" style="fill:rgb(121,68,50)"/>
<rect x="392" y="40" width="10" height="10" style="fill:rgb(121,68,50)"/>
<rect x="402" y="40" width="10" height="10" style="fill:rgb(121,68,50)"/>
<rect x="412" y="40" width="10" height="10" style="fill:rgb(121,68,50)"/>
<rect x="422" y="40" width="10" height="10" style="fill:rgb(32,148,52)"/>
<rect x="440" y="0" width="10" height="10" style="fill:rgb(121,68,50)"/>
<rect x="450" y="0" width="10" height="10" style="fill:rgb(112,90,69)"/>
<rect x="460" y="0" width="10" height="10" style="fill:rgb(112,90,69)"/>
<rect x="470" y="0" width="10" height="10" style="fill:rgb(61,35,112)"/>
<rect x="480" y="0" width="10" height="10" style="fill:rgb(61,35,112)"/>
<rect x="490" y="0" width="10" height="10" style="fill:rgb(19,148,191)"/>
<rect x="500" y="0" width="10" height="10" style="fill:rgb(19,148,191)"/>
<rect x="510" y="0" width="10" height="10" style="fill:rgb(19,148,191)"/>
<rect x="440" y="10" width="10" height="10" style="fill:rgb(121,68,50)"/>
<rect x="450" y="10" width="10" height="10" style="fill:rgb(121,68,50)"/>
<rect x="460" y="10" width="10" height="10" style="fill:rgb(112,90,69)"/>
<rect x="470" y="10" width="10" height="10" style="fill:rgb(112,90,69)"/>
<rect x="480" y="10" width="10" height="10" style="fill:rgb(61,35,112)"/>
<rect x="490" y="10" width="10" height="10" style="fill:rgb(61,35,112)"/>
<rect x="500" y="10" width="10" height="10" style="fill:rgb(61,35,112)"/>
<rect x="510" y="10" width="10" height="10" style="fill:rgb(19,148,191)"/>
<rect x="440" y="20" width="10" height="10" style="fill:rgb(121,68,50)"/>
<rect x="450" y="20" width="10" height="10" style="fill:rgb(32,148,52)"/>
<rect x="460" y="20" width="10" height="10" style="fill:rgb(11,115,104)"/>
<rect x="470" y="20" width="10" height="10" style="fill:rgb(112,90,69)"/>
<rect x="480" y="20" width="10" height="10" style="fill:rgb(223,207,59)"/>
<rect x="490" y="20" width="10" height="10" style="fill:rgb(223,207,59)"/>
<rect x="500" y="20" width="10" height="10" style="fill:rgb(255,192,203)"/>
<rect x="510" y="20" width="10" height="10" style="fill:rgb(19,148,191)"/>
<rect x="440" y="30" width="10" height="10" style="fill:rgb(121,68,50)"/>
<rect x="450" y="30" width="10" height="10" style="fill:rgb(32,148,52)"/>
<rect x="460" y="30" width="10" height="10" style="fill:rgb(11,115,104)"/>
<rect x="470" y="30" width="10" height="10" style="fill:rgb(11,115,104)"/>
<rect x="480" y="30" width="10" height="10" style="fill:rgb(11,115,104)"/>
<rect x="490" y="30" width="10" height="10" style="fill:rgb(223,207,59)"/>
<rect x="500" y="30" width="10" height="10" style="fill:rgb(255,192,203)"/>
<rect x="510" y="30" width="10" height="10" style="fill:rgb(255,192,203)"/>
<rect x="440" y="40" width="10" height="10" style="fill:rgb(32,148,52)"/>
<rect x="450" y="40" width="10" height="10" style="fill:rgb(32,148,52)"/>
<rect x="460" y="40" width="10" height="10" style="fill:rgb(32,148,52)"/>
<rect x="470" y="40" width="10" height="10" style="fill:rgb(11,115,104)"/>
<rect x="480" y="40" width="10" height="10" style="fill:rgb(223,207,59)"/>
<rect x="490" y="40" width="10" height="10" style="fill:rgb(223,207,59)"/>
<rect x="500" y="40" width="10" height="10" style="fill:rgb(255,192,203)"/>
<rect x="510" y="40" width="10" height="10" style="fill:rgb(255,192,203)"/>
</svg>
