<svg xmlns="http://www.w3.org/2000/svg" width="1000" height="50">
<rect x="0" y="0" width="10" height="10" style="fill:rgb(121,68,50)"/>
<rect x="10" y="0" width="10" height="10" style="fill:rgb(121,68,50)"/>
<rect x="20" y="0" width="10" height="10" style="fill:rgb(121,68,50)"/>
<rect x="30" y="0" width="10" height="10" style="fill:rgb(121,68,50)"/>
<rect x="0" y="10" width="10" height="10" style="fill:rgb(248,115,50)"/>
<rect x="10" y="10" width="10" height="10" style="fill:rgb(248,115,50)"/>
<rect x="20" y="10" width="10" height="10" style="fill:rgb(121,68,50)"/>
<rect x="30" y="10" width="10" height="10" style="fill:rgb(32,148,52)"/>
<rect x="0" y="20" width="10" height="10" style="fill:rgb(248,115,50)"/>
<rect x="10" y="20" width="10" height="10" style="fill:rgb(32,148,52)"/>
<rect x="20" y="20" width="10" height="10" style="fill:rgb(32,148,52)"/>
<rect x="30" y="20" width="10" height="10" style="fill:rgb(32,148,52)"/>
<rect x="0" y="30" width="10" height="10" style="fill:rgb(248,115,50)"/>
<rect x="10" y="30" width="10" height="10" style="fill:rgb(255,192,203)"/>
<rect x="20" y="30" width="10" height="10" style="fill:rgb(255,192,203)"/>
<rect x="30" y="30" width="10" height="10" style="fill:rgb(32,148,52)"/>
<rect x="0" y="40" width="10" height="10" style="fill:rgb(248,115,50)"/>
<rect x="10" y="40" width="10" height="10" style="fill:rgb(255,192,203)"/>
<rect x="20" y="40" width="10" height="10" style="fill:rgb(255,192,203)"/>
<rect x="30" y="40" width="10" height="10" style="fill:rgb(255,192,203)"/>
</svg>
