<svg xmlns="http://www.w3.org/2000/svg" width="1000" height="50">
<rect x="0" y="0" width="10" height="10" style="fill:rgb(248,115,50)"/>
<rect x="10" y="0" width="10" height="10" style="fill:rgb(248,115,50)"/>
<rect x="20" y="0" width="10" height="10" style="fill:rgb(255,192,203)"/>
<rect x="30" y="0" width="10" height="10" style="fill:rgb(255,192,203)"/>
<rect x="40" y="0" width="10" height="10" style="fill:rgb(19,148,191)"/>
<rect x="50" y="0" width="10" height="10" style="fill:rgb(19,148,191)"/>
<rect x="60" y="0" width="10" height="10" style="fill:rgb(19,148,191)"/>
<rect x="0" y="10" width="10" height="10" style="fill:rgb(248,115,50)"/>
<rect x="10" y="10" width="10" height="10" style="fill:rgb(255,192,203)"/>
<rect x="20" y="10" width="10" height="10" style="fill:rgb(255,192,203)"/>
<rect x="30" y="10" width="10" height="10" style="fill:rgb(255,192,203)"/>
<rect x="40" y="10" width="10" height="10" style="fill:rgb(112,90,69)"/>
<rect x="50" y="10" width="10" height="10" style="fill:rgb(61,35,112)"/>
<rect x="60" y="10" width="10" height="10" style="fill:rgb(19,148,191)"/>
<rect x="0" y="20" width="10" height="10" style="fill:rgb(248,115,50)"/>
<rect x="10" y="20" width="10" height="10" style="fill:rgb(31,183,223)"/>
<rect x="20" y="20" width="10" height="10" style="fill:rgb(31,183,223)"/>
<rect x="30" y="20" width="10" height="10" style="fill:rgb(112,90,69)"/>
<rect x="40" y="20" width="10" height="10" style="fill:rgb(112,90,69)"/>
<rect x="50" y="20" width="10" height="10" style="fill:rgb(61,35,112)"/>
<rect x="60" y="20" width="10" height="10" style="fill:rgb(19,148,191)"/>
<rect x="0" y="30" width="10" height="10" style="fill:rgb(248,115,50)"/>
<rect x="10" y="30" width="10" height="10" style="fill:rgb(31,183,223)"/>
<rect x="20" y="30" width="10" height="10" style="fill:rgb(112,90,69)"/>
<rect x="30" y="30" width="10" height="10" style="fill:rgb(112,90,69)"/>
<rect x="40" y="30" width="10" height="10" style="fill:rgb(121,68,50)"/>
<rect x="50" y="30" width="10" height="10" style="fill:rgb(61,35,112)"/>
<rect x="60" y="30" width="10" height="10" style="fill:rgb(61,35,112)"/>
<rect x="0" y="40" width="10" height="10" style="fill:rgb(31,183,223)"/>
<rect x="10" y="40" width="10" height="10" style="fill:rgb(31,183,223)"/>
<rect x="20" y="40" width="10" height="10" style="fill:rgb(121,68,50)"/>
<rect x="30" y="40" width="10" height="10" style="fill:rgb(121,68,50)"/>
<rect x="40" y="40" width="10" height="10" style="fill:rgb(121,68,50)"/>
<rect x="50" y="40" width="10" height="10" style="fill:rgb(121,68,50)"/>
<rect x="60" y="40" width="10" height="10" style="fill:rgb(61,35,112)"/>
<rect x="78" y="0" width="10" height="10" style="fill:rgb(248,115,50)"/>
<rect x="88" y="0" width="10" height="10" style="fill:rgb(248,115,50)"/>
<rect x="98" y="0" width="10" height="10" style="fill:rgb(255,192,203)"/>
<rect x="108" y="0" width="10" height="10" style="fill:rgb(255,192,203)"/>
<rect x="118" y="0" width="10" height="10" style="fill:rgb(19,148,191)"/>
<rect x="128" y="0" width="10" height="10" style="fill:rgb(19,148,191)"/>
<rect x="138" y="0" width="10" height="10" style="fill:rgb(19,148,191)"/>
<rect x="78" y="10" width="10" height="10" style="fill:rgb(248,115,50)"/>
<rect x="88" y="10" width="10" height="10" style="fill:rgb(112,90,69)"/>
<rect x="98" y="10" width="10" height="10" style="fill:rgb(255,192,203)"/>
<rect x="108" y="10" width="10" height="10" style="fill:rgb(255,192,203)"/>
<rect x="118" y="10" width="10" height="10" style="fill:rgb(255,192,203)"/>
<rect x="128" y="10" width="10" height="10" style="fill:rgb(61,35,112)"/>
<rect x="138" y="10" width="10" height="10" style="fill:rgb(19,148,191)"/>
<rect x="78" y="20" width="10" height="10" style="fill:rgb(248,115,50)"/>
<rect x="88" y="20" width="10" height="10" style="fill:rgb(112,90,69)"/>
<rect x="98" y="20" width="10" height="10" style="fill:rgb(112,90,69)"/>
<rect x="108" y="20" width="10" height="10" style="fill:rgb(31,183,223)"/>
<rect x="118" y="20" width="10" height="10" style="fill:rgb(31,183,223)"/>
<rect x="128" y="20" width="10" height="10" style="fill:rgb(61,35,112)"/>
<rect x="138" y="20" width="10" height="10" style="fill:rgb(19,148,191)"/>
<rect x="78" y="30" width="10" height="10" style="fill:rgb(248,115,50)"/>
<rect x="88" y="30" width="10" height="10" style="fill:rgb(121,68,50)"/>
<rect x="98" y="30" width="10" height="10" style="fill:rgb(112,90,69)"/>
<rect x="108" y="30" width="10" height="10" style="fill:rgb(112,90,69)"/>
<rect x="118" y="30" width="10" height="10" style="fill:rgb(31,183,223)"/>
<rect x="128" y="30" width="10" height="10" style="fill:rgb(61,35,112)"/>
<rect x="138" y="30" width="10" height="10" style="fill:rgb(61,35,112)"/>
<rect x="78" y="40" width="10" height="10" style="fill:rgb(121,68,50)"/>
<rect x="88" y="40" width="10" height="10" style="fill:rgb(121,68,50)"/>
<rect x="98" y="40" width="10" height="10" style="fill:rgb(121,68,50)"/>
<rect x="108" y="40" width="10" height="10" style="fill:rgb(121,68,50)"/>
<rect x="118" y="40" width="10" height="10" style="fill:rgb(31,183,223)"/>
<rect x="128" y="40" width="10" height="10" style="fill:rgb(31,183,223)"/>
<rect x="138" y="40" width="10" height="10" style="fill:rgb(61,35,112)"/>
<rect x="156" y="0" width="10" height="10" style="fill:rgb(248,115,50)"/>
<rect x="166" y="0" width="10" height="10" style="fill:rgb(248,115,50)"/>
<rect x="176" y="0" width="10" height="10" style="fill:rgb(112,90,69)"/>
<rect x="186" y="0" width="10" height="10" style="fill:rgb(112,90,69)"/>
<rect x="196" y="0" width="10" height="10" style="fill:rgb(61,35,112)"/>
<rect x="206" y="0" width="10" height="10" style="fill:rgb(61,35,112)"/>
<rect x="216" y="0" width="10" height="10" style="fill:rgb(61,35,112)"/>
<rect x="156" y="10" width="10" height="10" style="fill:rgb(248,115,50)"/>
<rect x="166" y="10" width="10" height="10" style="fill:rgb(112,90,69)"/>
<rect x="176" y="10" width="10" height="10" style="fill:rgb(112,90,69)"/>
<rect x="186" y="10" width="10" height="10" style="fill:rgb(61,35,112)"/>
<rect x="196" y="10" width="10" height="10" style="fill:rgb(61,35,112)"/>
<rect x="206" y="10" width="10" height="10" style="fill:rgb(31,183,223)"/>
<rect x="216" y="10" width="10" height="10" style="fill:rgb(31,183,223)"/>
<rect x="156" y="20" width="10" height="10" style="fill:rgb(248,115,50)"/>
<rect x="166" y="20" width="10" height="10" style="fill:rgb(112,90,69)"/>
<rect x="176" y="20" width="10" height="10" style="fill:rgb(255,192,203)"/>
<rect x="186" y="20" width="10" height="10" style="fill:rgb(255,192,203)"/>
<rect x="196" y="20" width="10" height="10" style="fill:rgb(255,192,203)"/>
<rect x="206" y="20" width="10" height="10" style="fill:rgb(31,183,223)"/>
<rect x="216" y="20" width="10" height="10" style="fill:rgb(19,148,191)"/>
<rect x="156" y="30" width="10" height="10" style="fill:rgb(248,115,50)"/>
<rect x="166" y="30" width="10" height="10" style="fill:rgb(121,68,50)"/>
<rect x="176" y="30" width="10" height="10" style="fill:rgb(255,192,203)"/>
<rect x="186" y="30" width="10" height="10" style="fill:rgb(255,192,203)"/>
<rect x="196" y="30" width="10" height="10" style="fill:rgb(31,183,223)"/>
<rect x="206" y="30" width="10" height="10" style="fill:rgb(31,183,223)"/>
<rect x="216" y="30" width="10" height="10" style="fill:rgb(19,148,191)"/>
<rect x="156" y="40" width="10" height="10" style="fill:rgb(121,68,50)"/>
<rect x="166" y="40" width="10" height="10" style="fill:rgb(121,68,50)"/>
<rect x="176" y="40" width="10" height="10" style="fill:rgb(121,68,50)"/>
<rect x="186" y="40" width="10" height="10" style="fill:rgb(121,68,50)"/>
<rect x="196" y="40" width="10" height="10" style="fill:rgb(19,148,191)"/>
<rect x="206" y="40" width="10" height="10" style="fill:rgb(19,148,191)"/>
<rect x="216" y="40" width="10" height="10" style="fill:rgb(19,148,191)"/>
<rect x="234" y="0" width="10" height="10" style="fill:rgb(61,35,112)"/>
<rect x="244" y="0" width="10" height="10" style="fill:rgb(61,35,112)"/>
<rect x="254" y="0" width="10" height="10" style="fill:rgb(61,35,112)"/>
<rect x="264" y="0" width="10" height="10" style="fill:rgb(248,115,50)"/>
<rect x="274" y="0" width="10" height="10" style="fill:rgb(248,115,50)"/>
<rect x="284" y="0" width="10" height="10" style="fill:rgb(248,115,50)"/>
<rect x="294" y="0" width="10" height="10" style="fill:rgb(248,115,50)"/>
<rect x="234" y="10" width="10" height="10" style="fill:rgb(31,183,223)"/>
<rect x="244" y="10" width="10" height="10" style="fill:rgb(31,183,223)"/>
<rect x="254" y="10" width="10" height="10" style="fill:rgb(61,35,112)"/>
<rect x="264" y="10" width="10" height="10" style="fill:rgb(61,35,112)"/>
<rect x="274" y="10" width="10" height="10" style="fill:rgb(112,90,69)"/>
<rect x="284" y="10" width="10" height="10" style="fill:rgb(112,90,69)"/>
<rect x="294" y="10" width="10" height="10" style="fill:rgb(248,115,50)"/>
<rect x="234" y="20" width="10" height="10" style="fill:rgb(19,148,191)"/>
<rect x="244" y="20" width="10" height="10" style="fill:rgb(31,183,223)"/>
<rect x="254" y="20" width="10" height="10" style="fill:rgb(255,192,203)"/>
<rect x="264" y="20" width="10" height="10" style="fill:rgb(255,192,203)"/>
<rect x="274" y="20" width="10" height="10" style="fill:rgb(255,192,203)"/>
<rect x="284" y="20" width="10" height="10" style="fill:rgb(112,90,69)"/>
<rect x="294" y="20" width="10" height="10" style="fill:rgb(112,90,69)"/>
<rect x="234" y="30" width="10" height="10" style="fill:rgb(19,148,191)"/>
<rect x="244" y="30" width="10" height="10" style="fill:rgb(31,183,223)"/>
<rect x="254" y="30" width="10" height="10" style="fill:rgb(31,183,223)"/>
<rect x="264" y="30" width="10" height="10" style="fill:rgb(255,192,203)"/>
<rect x="274" y="30" width="10" height="10" style="fill:rgb(255,192,203)"/>
<rect x="284" y="30" width="10" height="10" style="fill:rgb(121,68,50)"/>
<rect x="294" y="30" width="10" height="10" style="fill:rgb(112,90,69)"/>
<rect x="234" y="40" width="10" height="10" style="fill:rgb(19,148,191)"/>
<rect x="244" y="40" width="10" height="10" style="fill:rgb(19,148,191)"/>
<rect x="254" y="40" width="10" height="10" style="fill:rgb(19,148,191)"/>
<rect x="264" y="40" width="10" height="10" style="fill:rgb(121,68,50)"/>
<rect x="274" y="40" width="10" height="10" style="fill:rgb(121,68,50)"/>
<rect x="284" y="40" width="10" height="10" style="fill:rgb(121,68,50)"/>
<rect x="294" y="40" width="10" height="10" style="fill:rgb(121,68,50)"/>
</svg>
