<svg xmlns="http://www.w3.org/2000/svg" width="1000" height="50">
<rect x="0" y="0" width="10" height="10" style="fill:rgb(121,68,50)"/>
<rect x="10" y="0" width="10" height="10" style="fill:rgb(32,148,52)"/>
<rect x="20" y="0" width="10" height="10" style="fill:rgb(32,148,52)"/>
<rect x="30" y="0" width="10" height="10" style="fill:rgb(32,148,52)"/>
<rect x="40" y="0" width="10" height="10" style="fill:rgb(223,207,59)"/>
<rect x="50" y="0" width="10" height="10" style="fill:rgb(223,207,59)"/>
<rect x="60" y="0" width="10" height="10" style="fill:rgb(223,207,59)"/>
<rect x="0" y="10" width="10" height="10" style="fill:rgb(121,68,50)"/>
<rect x="10" y="10" width="10" height="10" style="fill:rgb(121,68,50)"/>
<rect x="20" y="10" width="10" height="10" style="fill:rgb(32,148,52)"/>
<rect x="30" y="10" width="10" height="10" style="fill:rgb(255,192,203)"/>
<rect x="40" y="10" width="10" height="10" style="fill:rgb(223,207,59)"/>
<rect x="50" y="10" width="10" height="10" style="fill:rgb(61,35,112)"/>
<rect x="60" y="10" width="10" height="10" style="fill:rgb(223,207,59)"/>
<rect x="0" y="20" width="10" height="10" style="fill:rgb(121,68,50)"/>
<rect x="10" y="20" width="10" height="10" style="fill:rgb(11,115,104)"/>
<rect x="20" y="20" width="10" height="10" style="fill:rgb(32,148,52)"/>
<rect x="30" y="20" width="10" height="10" style="fill:rgb(255,192,203)"/>
<rect x="40" y="20" width="10" height="10" style="fill:rgb(255,192,203)"/>
<rect x="50" y="20" width="10" height="10" style="fill:rgb(61,35,112)"/>
<rect x="60" y="20" width="10" height="10" style="fill:rgb(61,35,112)"/>
<rect x="0" y="30" width="10" height="10" style="fill:rgb(121,68,50)"/>
<rect x="10" y="30" width="10" height="10" style="fill:rgb(11,115,104)"/>
<rect x="20" y="30" width="10" height="10" style="fill:rgb(11,115,104)"/>
<rect x="30" y="30" width="10" height="10" style="fill:rgb(255,192,203)"/>
<rect x="40" y="30" width="10" height="10" style="fill:rgb(255,192,203)"/>
<rect x="50" y="30" width="10" height="10" style="fill:rgb(248,115,50)"/>
<rect x="60" y="30" width="10" height="10" style="fill:rgb(61,35,112)"/>
<rect x="0" y="40" width="10" height="10" style="fill:rgb(11,115,104)"/>
<rect x="10" y="40" width="10" height="10" style="fill:rgb(11,115,104)"/>
<rect x="20" y="40" width="10" height="10" style="fill:rgb(248,115,50)"/>
<rect x="30" y="40" width="10" height="10" style="fill:rgb(248,115,50)"/>
<rect x="40" y="40" width="10" height="10" style="fill:rgb(248,115,50)"/>
<rect x="50" y="40" width="10" height="10" style="fill:rgb(248,115,50)"/>
<rect x="60" y="40" width="10" height="10" style="fill:rgb(61,35,112)"/>
<rect x="78" y="0" width="10" height="10" style="fill:rgb(223,207,59)"/>
<rect x="88" y="0" width="10" height="10" style="fill:rgb(223,207,59)"/>
<rect x="98" y="0" width="10" height="10" style="fill:rgb(223,207,59)"/>
<rect x="108" y="0" width="10" height="10" style="fill:rgb(32,148,52)"/>
<rect x="118" y="0" width="10" height="10" style="fill:rgb(32,148,52)"/>
<rect x="128" y="0" width="10" height="10" style="fill:rgb(32,148,52)"/>
<rect x="138" y="0" width="10" height="10" style="fill:rgb(121,68,50)"/>
<rect x="78" y="10" width="10" height="10" style="fill:rgb(223,207,59)"/>
<rect x="88" y="10" width="10" height="10" style="fill:rgb(61,35,112)"/>
<rect x="98" y="10" width="10" height="10" style="fill:rgb(223,207,59)"/>
<rect x="108" y="10" width="10" height="10" style="fill:rgb(248,115,50)"/>
<rect x="118" y="10" width="10" height="10" style="fill:rgb(32,148,52)"/>
<rect x="128" y="10" width="10" height="10" style="fill:rgb(121,68,50)"/>
<rect x="138" y="10" width="10" height="10" style="fill:rgb(121,68,50)"/>
<rect x="78" y="20" width="10" height="10" style="fill:rgb(255,192,203)"/>
<rect x="88" y="20" width="10" height="10" style="fill:rgb(61,35,112)"/>
<rect x="98" y="20" width="10" height="10" style="fill:rgb(61,35,112)"/>
<rect x="108" y="20" width="10" height="10" style="fill:rgb(248,115,50)"/>
<rect x="118" y="20" width="10" height="10" style="fill:rgb(32,148,52)"/>
<rect x="128" y="20" width="10" height="10" style="fill:rgb(11,115,104)"/>
<rect x="138" y="20" width="10" height="10" style="fill:rgb(121,68,50)"/>
<rect x="78" y="30" width="10" height="10" style="fill:rgb(255,192,203)"/>
<rect x="88" y="30" width="10" height="10" style="fill:rgb(255,192,203)"/>
<rect x="98" y="30" width="10" height="10" style="fill:rgb(61,35,112)"/>
<rect x="108" y="30" width="10" height="10" style="fill:rgb(248,115,50)"/>
<rect x="118" y="30" width="10" height="10" style="fill:rgb(11,115,104)"/>
<rect x="128" y="30" width="10" height="10" style="fill:rgb(11,115,104)"/>
<rect x="138" y="30" width="10" height="10" style="fill:rgb(121,68,50)"/>
<rect x="78" y="40" width="10" height="10" style="fill:rgb(255,192,203)"/>
<rect x="88" y="40" width="10" height="10" style="fill:rgb(255,192,203)"/>
<rect x="98" y="40" width="10" height="10" style="fill:rgb(61,35,112)"/>
<rect x="108" y="40" width="10" height="10" style="fill:rgb(248,115,50)"/>
<rect x="118" y="40" width="10" height="10" style="fill:rgb(248,115,50)"/>
<rect x="128" y="40" width="10" height="10" style="fill:rgb(11,115,104)"/>
<rect x="138" y="40" width="10" height="10" style="fill:rgb(11,115,104)"/>
<rect x="156" y="0" width="10" height="10" style="fill:rgb(223,207,59)"/>
<rect x="166" y="0" width="10" height="10" style="fill:rgb(223,207,59)"/>
<rect x="176" y="0" width="10" height="10" style="fill:rgb(223,207,59)"/>
<rect x="186" y="0" width="10" height="10" style="fill:rgb(11,115,104)"/>
<rect x="196" y="0" width="10" height="10" style="fill:rgb(11,115,104)"/>
<rect x="206" y="0" width="10" height="10" style="fill:rgb(248,115,50)"/>
<rect x="216" y="0" width="10" height="10" style="fill:rgb(248,115,50)"/>
<rect x="156" y="10" width="10" height="10" style="fill:rgb(223,207,59)"/>
<rect x="166" y="10" width="10" height="10" style="fill:rgb(61,35,112)"/>
<rect x="176" y="10" width="10" height="10" style="fill:rgb(223,207,59)"/>
<rect x="186" y="10" width="10" height="10" style="fill:rgb(121,68,50)"/>
<rect x="196" y="10" width="10" height="10" style="fill:rgb(11,115,104)"/>
<rect x="206" y="10" width="10" height="10" style="fill:rgb(11,115,104)"/>
<rect x="216" y="10" width="10" height="10" style="fill:rgb(248,115,50)"/>
<rect x="156" y="20" width="10" height="10" style="fill:rgb(255,192,203)"/>
<rect x="166" y="20" width="10" height="10" style="fill:rgb(61,35,112)"/>
<rect x="176" y="20" width="10" height="10" style="fill:rgb(61,35,112)"/>
<rect x="186" y="20" width="10" height="10" style="fill:rgb(121,68,50)"/>
<rect x="196" y="20" width="10" height="10" style="fill:rgb(11,115,104)"/>
<rect x="206" y="20" width="10" height="10" style="fill:rgb(32,148,52)"/>
<rect x="216" y="20" width="10" height="10" style="fill:rgb(248,115,50)"/>
<rect x="156" y="30" width="10" height="10" style="fill:rgb(255,192,203)"/>
<rect x="166" y="30" width="10" height="10" style="fill:rgb(255,192,203)"/>
<rect x="176" y="30" width="10" height="10" style="fill:rgb(61,35,112)"/>
<rect x="186" y="30" width="10" height="10" style="fill:rgb(121,68,50)"/>
<rect x="196" y="30" width="10" height="10" style="fill:rgb(121,68,50)"/>
<rect x="206" y="30" width="10" height="10" style="fill:rgb(32,148,52)"/>
<rect x="216" y="30" width="10" height="10" style="fill:rgb(248,115,50)"/>
<rect x="156" y="40" width="10" height="10" style="fill:rgb(255,192,203)"/>
<rect x="166" y="40" width="10" height="10" style="fill:rgb(255,192,203)"/>
<rect x="176" y="40" width="10" height="10" style="fill:rgb(61,35,112)"/>
<rect x="186" y="40" width="10" height="10" style="fill:rgb(121,68,50)"/>
<rect x="196" y="40" width="10" height="10" style="fill:rgb(32,148,52)"/>
<rect x="206" y="40" width="10" height="10" style="fill:rgb(32,148,52)"/>
<rect x="216" y="40" width="10" height="10" style="fill:rgb(32,148,52)"/>
<rect x="234" y="0" width="10" height="10" style="fill:rgb(223,207,59)"/>
<rect x="244" y="0" width="10" height="10" style="fill:rgb(223,207,59)"/>
<rect x="254" y="0" width="10" height="10" style="fill:rgb(223,207,59)"/>
<rect x="264" y="0" width="10" height="10" style="fill:rgb(248,115,50)"/>
<rect x="274" y="0" width="10" height="10" style="fill:rgb(248,115,50)"/>
<rect x="284" y="0" width="10" height="10" style="fill:rgb(11,115,104)"/>
<rect x="294" y="0" width="10" height="10" style="fill:rgb(11,115,104)"/>
<rect x="234" y="10" width="10" height="10" style="fill:rgb(223,207,59)"/>
<rect x="244" y="10" width="10" height="10" style="fill:rgb(61,35,112)"/>
<rect x="254" y="10" width="10" height="10" style="fill:rgb(223,207,59)"/>
<rect x="264" y="10" width="10" height="10" style="fill:rgb(248,115,50)"/>
<rect x="274" y="10" width="10" height="10" style="fill:rgb(11,115,104)"/>
<rect x="284" y="10" width="10" height="10" style="fill:rgb(11,115,104)"/>
<rect x="294" y="10" width="10" height="10" style="fill:rgb(121,68,50)"/>
<rect x="234" y="20" width="10" height="10" style="fill:rgb(255,192,203)"/>
<rect x="244" y="20" width="10" height="10" style="fill:rgb(61,35,112)"/>
<rect x="254" y="20" width="10" height="10" style="fill:rgb(61,35,112)"/>
<rect x="264" y="20" width="10" height="10" style="fill:rgb(248,115,50)"/>
<rect x="274" y="20" width="10" height="10" style="fill:rgb(32,148,52)"/>
<rect x="284" y="20" width="10" height="10" style="fill:rgb(11,115,104)"/>
<rect x="294" y="20" width="10" height="10" style="fill:rgb(121,68,50)"/>
<rect x="234" y="30" width="10" height="10" style="fill:rgb(255,192,203)"/>
<rect x="244" y="30" width="10" height="10" style="fill:rgb(255,192,203)"/>
<rect x="254" y="30" width="10" height="10" style="fill:rgb(61,35,112)"/>
<rect x="264" y="30" width="10" height="10" style="fill:rgb(248,115,50)"/>
<rect x="274" y="30" width="10" height="10" style="fill:rgb(32,148,52)"/>
<rect x="284" y="30" width="10" height="10" style="fill:rgb(121,68,50)"/>
<rect x="294" y="30" width="10" height="10" style="fill:rgb(121,68,50)"/>
<rect x="234" y="40" width="10" height="10" style="fill:rgb(255,192,203)"/>
<rect x="244" y="40" width="10" height="10" style="fill:rgb(255,192,203)"/>
<rect x="254" y="40" width="10" height="10" style="fill:rgb(61,35,112)"/>
<rect x="264" y="40" width="10" height="10" style="fill:rgb(32,148,52)"/>
<rect x="274" y="40" width="10" height="10" style="fill:rgb(32,148,52)"/>
<rect x="284" y="40" width="10" height="10" style="fill:rgb(32,148,52)"/>
<rect x="294" y="40" width="10" height="10" style="fill:rgb(121,68,50)"/>
<rect x="312" y="0" width="10" height="10" style="fill:rgb(223,207,59)"/>
<rect x="322" y="0" width="10" height="10" style="fill:rgb(223,207,59)"/>
<rect x="332" y="0" width="10" height="10" style="fill:rgb(223,207,59)"/>
<rect x="342" y="0" width="10" height="10" style="fill:rgb(121,68,50)"/>
<rect x="352" y="0" width="10" height="10" style="fill:rgb(32,148,52)"/>
<rect x="362" y="0" width="10" height="10" style="fill:rgb(32,148,52)"/>
<rect x="372" y="0" width="10" height="10" style="fill:rgb(32,148,52)"/>
<rect x="312" y="10" width="10" height="10" style="fill:rgb(223,207,59)"/>
<rect x="322" y="10" width="10" height="10" style="fill:rgb(61,35,112)"/>
<rect x="332" y="10" width="10" height="10" style="fill:rgb(223,207,59)"/>
<rect x="342" y="10" width="10" height="10" style="fill:rgb(121,68,50)"/>
<rect x="352" y="10" width="10" height="10" style="fill:rgb(121,68,50)"/>
<rect x="362" y="10" width="10" height="10" style="fill:rgb(32,148,52)"/>
<rect x="372" y="10" width="10" height="10" style="fill:rgb(248,115,50)"/>
<rect x="312" y="20" width="10" height="10" style="fill:rgb(255,192,203)"/>
<rect x="322" y="20" width="10" height="10" style="fill:rgb(61,35,112)"/>
<rect x="332" y="20" width="10" height="10" style="fill:rgb(61,35,112)"/>
<rect x="342" y="20" width="10" height="10" style="fill:rgb(121,68,50)"/>
<rect x="352" y="20" width="10" height="10" style="fill:rgb(11,115,104)"/>
<rect x="362" y="20" width="10" height="10" style="fill:rgb(32,148,52)"/>
<rect x="372" y="20" width="10" height="10" style="fill:rgb(248,115,50)"/>
<rect x="312" y="30" width="10" height="10" style="fill:rgb(255,192,203)"/>
<rect x="322" y="30" width="10" height="10" style="fill:rgb(255,192,203)"/>
<rect x="332" y="30" width="10" height="10" style="fill:rgb(61,35,112)"/>
<rect x="342" y="30" width="10" height="10" style="fill:rgb(121,68,50)"/>
<rect x="352" y="30" width="10" height="10" style="fill:rgb(11,115,104)"/>
<rect x="362" y="30" width="10" height="10" style="fill:rgb(11,115,104)"/>
<rect x="372" y="30" width="10" height="10" style="fill:rgb(248,115,50)"/>
<rect x="312" y="40" width="10" height="10" style="fill:rgb(255,192,203)"/>
<rect x="322" y="40" width="10" height="10" style="fill:rgb(255,192,203)"/>
<rect x="332" y="40" width="10" height="10" style="fill:rgb(61,35,112)"/>
<rect x="342" y="40" width="10" height="10" style="fill:rgb(11,115,104)"/>
<rect x="352" y="40" width="10" height="10" style="fill:rgb(11,115,104)"/>
<rect x="362" y="40" width="10" height="10" style="fill:rgb(248,115,50)"/>
<rect x="372" y="40" width="10" height="10" style="fill:rgb(248,115,50)"/>
<rect x="390" y="0" width="10" height="10" style="fill:rgb(32,148,52)"/>
<rect x="400" y="0" width="10" height="10" style="fill:rgb(32,148,52)"/>
<rect x="410" y="0" width="10" height="10" style="fill:rgb(32,148,52)"/>
<rect x="420" y="0" width="10" height="10" style="fill:rgb(121,68,50)"/>
<rect x="430" y="0" width="10" height="10" style="fill:rgb(223,207,59)"/>
<rect x="440" y="0" width="10" height="10" style="fill:rgb(223,207,59)"/>
<rect x="450" y="0" width="10" height="10" style="fill:rgb(223,207,59)"/>
<rect x="390" y="10" width="10" height="10" style="fill:rgb(248,115,50)"/>
<rect x="400" y="10" width="10" height="10" style="fill:rgb(32,148,52)"/>
<rect x="410" y="10" width="10" height="10" style="fill:rgb(121,68,50)"/>
<rect x="420" y="10" width="10" height="10" style="fill:rgb(121,68,50)"/>
<rect x="430" y="10" width="10" height="10" style="fill:rgb(223,207,59)"/>
<rect x="440" y="10" width="10" height="10" style="fill:rgb(61,35,112)"/>
<rect x="450" y="10" width="10" height="10" style="fill:rgb(223,207,59)"/>
<rect x="390" y="20" width="10" height="10" style="fill:rgb(248,115,50)"/>
<rect x="400" y="20" width="10" height="10" style="fill:rgb(32,148,52)"/>
<rect x="410" y="20" width="10" height="10" style="fill:rgb(11,115,104)"/>
<rect x="420" y="20" width="10" height="10" style="fill:rgb(121,68,50)"/>
<rect x="430" y="20" width="10" height="10" style="fill:rgb(255,192,203)"/>
<rect x="440" y="20" width="10" height="10" style="fill:rgb(61,35,112)"/>
<rect x="450" y="20" width="10" height="10" style="fill:rgb(61,35,112)"/>
<rect x="390" y="30" width="10" height="10" style="fill:rgb(248,115,50)"/>
<rect x="400" y="30" width="10" height="10" style="fill:rgb(11,115,104)"/>
<rect x="410" y="30" width="10" height="10" style="fill:rgb(11,115,104)"/>
<rect x="420" y="30" width="10" height="10" style="fill:rgb(121,68,50)"/>
<rect x="430" y="30" width="10" height="10" style="fill:rgb(255,192,203)"/>
<rect x="440" y="30" width="10" height="10" style="fill:rgb(255,192,203)"/>
<rect x="450" y="30" width="10" height="10" style="fill:rgb(61,35,112)"/>
<rect x="390" y="40" width="10" height="10" style="fill:rgb(248,115,50)"/>
<rect x="400" y="40" width="10" height="10" style="fill:rgb(248,115,50)"/>
<rect x="410" y="40" width="10" height="10" style="fill:rgb(11,115,104)"/>
<rect x="420" y="40" width="10" height="10" style="fill:rgb(11,115,104)"/>
<rect x="430" y="40" width="10" height="10" style="fill:rgb(255,192,203)"/>
<rect x="440" y="40" width="10" height="10" style="fill:rgb(255,192,203)"/>
<rect x="450" y="40" width="10" height="10" style="fill:rgb(61,35,112)"/>
<rect x="468" y="0" width="10" height="10" style="fill:rgb(11,115,104)"/>
<rect x="478" y="0" width="10" height="10" style="fill:rgb(11,115,104)"/>
<rect x="488" y="0" width="10" height="10" style="fill:rgb(248,115,50)"/>
<rect x="498" y="0" width="10" height="10" style="fill:rgb(248,115,50)"/>
<rect x="508" y="0" width="10" height="10" style="fill:rgb(223,207,59)"/>
<rect x="518" y="0" width="10" height="10" style="fill:rgb(223,207,59)"/>
<rect x="528" y="0" width="10" height="10" style="fill:rgb(223,207,59)"/>
<rect x="468" y="10" width="10" height="10" style="fill:rgb(121,68,50)"/>
<rect x="478" y="10" width="10" height="10" style="fill:rgb(11,115,104)"/>
<rect x="488" y="10" width="10" height="10" style="fill:rgb(11,115,104)"/>
<rect x="498" y="10" width="10" height="10" style="fill:rgb(248,115,50)"/>
<rect x="508" y="10" width="10" height="10" style="fill:rgb(223,207,59)"/>
<rect x="518" y="10" width="10" height="10" style="fill:rgb(61,35,112)"/>
<rect x="528" y="10" width="10" height="10" style="fill:rgb(223,207,59)"/>
<rect x="468" y="20" width="10" height="10" style="fill:rgb(121,68,50)"/>
<rect x="478" y="20" width="10" height="10" style="fill:rgb(11,115,104)"/>
<rect x="488" y="20" width="10" height="10" style="fill:rgb(32,148,52)"/>
<rect x="498" y="20" width="10" height="10" style="fill:rgb(248,115,50)"/>
<rect x="508" y="20" width="10" height="10" style="fill:rgb(255,192,203)"/>
<rect x="518" y="20" width="10" height="10" style="fill:rgb(61,35,112)"/>
<rect x="528" y="20" width="10" height="10" style="fill:rgb(61,35,112)"/>
<rect x="468" y="30" width="10" height="10" style="fill:rgb(121,68,50)"/>
<rect x="478" y="30" width="10" height="10" style="fill:rgb(121,68,50)"/>
<rect x="488" y="30" width="10" height="10" style="fill:rgb(32,148,52)"/>
<rect x="498" y="30" width="10" height="10" style="fill:rgb(248,115,50)"/>
<rect x="508" y="30" width="10" height="10" style="fill:rgb(255,192,203)"/>
<rect x="518" y="30" width="10" height="10" style="fill:rgb(255,192,203)"/>
<rect x="528" y="30" width="10" height="10" style="fill:rgb(61,35,112)"/>
<rect x="468" y="40" width="10" height="10" style="fill:rgb(121,68,50)"/>
<rect x="478" y="40" width="10" height="10" style="fill:rgb(32,148,52)"/>
<rect x="488" y="40" width="10" height="10" style="fill:rgb(32,148,52)"/>
<rect x="498" y="40" width="10" height="10" style="fill:rgb(32,148,52)"/>
<rect x="508" y="40" width="10" height="10" style="fill:rgb(255,192,203)"/>
<rect x="518" y="40" width="10" height="10" style="fill:rgb(255,192,203)"/>
<rect x="528" y="40" width="10" height="10" style="fill:rgb(61,35,112)"/>
<rect x="546" y="0" width="10" height="10" style="fill:rgb(248,115,50)"/>
<rect x="556" y="0" width="10" height="10" style="fill:rgb(248,115,50)"/>
<rect x="566" y="0" width="10" height="10" style="fill:rgb(11,115,104)"/>
<rect x="576" y="0" width="10" height="10" style="fill:rgb(11,115,104)"/>
<rect x="586" y="0" width="10" height="10" style="fill:rgb(223,207,59)"/>
<rect x="596" y="0" width="10" height="10" style="fill:rgb(223,207,59)"/>
<rect x="606" y="0" width="10" height="10" style="fill:rgb(223,207,59)"/>
<rect x="546" y="10" width="10" height="10" style="fill:rgb(248,115,50)"/>
<rect x="556" y="10" width="10" height="10" style="fill:rgb(11,115,104)"/>
<rect x="566" y="10" width="10" height="10" style="fill:rgb(11,115,104)"/>
<rect x="576" y="10" width="10" height="10" style="fill:rgb(121,68,50)"/>
<rect x="586" y="10" width="10" height="10" style="fill:rgb(223,207,59)"/>
<rect x="596" y="10" width="10" height="10" style="fill:rgb(61,35,112)"/>
<rect x="606" y="10" width="10" height="10" style="fill:rgb(223,207,59)"/>
<rect x="546" y="20" width="10" height="10" style="fill:rgb(248,115,50)"/>
<rect x="556" y="20" width="10" height="10" style="fill:rgb(32,148,52)"/>
<rect x="566" y="20" width="10" height="10" style="fill:rgb(11,115,104)"/>
<rect x="576" y="20" width="10" height="10" style="fill:rgb(121,68,50)"/>
<rect x="586" y="20" width="10" height="10" style="fill:rgb(255,192,203)"/>
<rect x="596" y="20" width="10" height="10" style="fill:rgb(61,35,112)"/>
<rect x="606" y="20" width="10" height="10" style="fill:rgb(61,35,112)"/>
<rect x="546" y="30" width="10" height="10" style="fill:rgb(248,115,50)"/>
<rect x="556" y="30" width="10" height="10" style="fill:rgb(32,148,52)"/>
<rect x="566" y="30" width="10" height="10" style="fill:rgb(121,68,50)"/>
<rect x="576" y="30" width="10" height="10" style="fill:rgb(121,68,50)"/>
<rect x="586" y="30" width="10" height="10" style="fill:rgb(255,192,203)"/>
<rect x="596" y="30" width="10" height="10" style="fill:rgb(255,192,203)"/>
<rect x="606" y="30" width="10" height="10" style="fill:rgb(61,35,112)"/>
<rect x="546" y="40" width="10" height="10" style="fill:rgb(32,148,52)"/>
<rect x="556" y="40" width="10" height="10" style="fill:rgb(32,148,52)"/>
<rect x="566" y="40" width="10" height="10" style="fill:rgb(32,148,52)"/>
<rect x="576" y="40" width="10" height="10" style="fill:rgb(121,68,50)"/>
<rect x="586" y="40" width="10" height="10" style="fill:rgb(255,192,203)"/>
<rect x="596" y="40" width="10" height="10" style="fill:rgb(255,192,203)"/>
<rect x="606" y="40" width="10" height="10" style="fill:rgb(61,35,112)"/>
<rect x="624" y="0" width="10" height="10" style="fill:rgb(121,68,50)"/>
<rect x="634" y="0" width="10" height="10" style="fill:rgb(32,148,52)"/>
<rect x="644" y="0" width="10" height="10" style="fill:rgb(32,148,52)"/>
<rect x="654" y="0" width="10" height="10" style="fill:rgb(32,148,52)"/>
<rect x="664" y="0" width="10" height="10" style="fill:rgb(223,207,59)"/>
<rect x="674" y="0" width="10" height="10" style="fill:rgb(223,207,59)"/>
<rect x="684" y="0" width="10" height="10" style="fill:rgb(223,207,59)"/>
<rect x="624" y="10" width="10" height="10" style="fill:rgb(121,68,50)"/>
<rect x="634" y="10" width="10" height="10" style="fill:rgb(121,68,50)"/>
<rect x="644" y="10" width="10" height="10" style="fill:rgb(32,148,52)"/>
<rect x="654" y="10" width="10" height="10" style="fill:rgb(248,115,50)"/>
<rect x="664" y="10" width="10" height="10" style="fill:rgb(223,207,59)"/>
<rect x="674" y="10" width="10" height="10" style="fill:rgb(61,35,112)"/>
<rect x="684" y="10" width="10" height="10" style="fill:rgb(223,207,59)"/>
<rect x="624" y="20" width="10" height="10" style="fill:rgb(121,68,50)"/>
<rect x="634" y="20" width="10" height="10" style="fill:rgb(11,115,104)"/>
<rect x="644" y="20" width="10" height="10" style="fill:rgb(32,148,52)"/>
<rect x="654" y="20" width="10" height="10" style="fill:rgb(248,115,50)"/>
<rect x="664" y="20" width="10" height="10" style="fill:rgb(255,192,203)"/>
<rect x="674" y="20" width="10" height="10" style="fill:rgb(61,35,112)"/>
<rect x="684" y="20" width="10" height="10" style="fill:rgb(61,35,112)"/>
<rect x="624" y="30" width="10" height="10" style="fill:rgb(121,68,50)"/>
<rect x="634" y="30" width="10" height="10" style="fill:rgb(11,115,104)"/>
<rect x="644" y="30" width="10" height="10" style="fill:rgb(11,115,104)"/>
<rect x="654" y="30" width="10" height="10" style="fill:rgb(248,115,50)"/>
<rect x="664" y="30" width="10" height="10" style="fill:rgb(255,192,203)"/>
<rect x="674" y="30" width="10" height="10" style="fill:rgb(255,192,203)"/>
<rect x="684" y="30" width="10" height="10" style="fill:rgb(61,35,112)"/>
<rect x="624" y="40" width="10" height="10" style="fill:rgb(11,115,104)"/>
<rect x="634" y="40" width="10" height="10" style="fill:rgb(11,115,104)"/>
<rect x="644" y="40" width="10" height="10" style="fill:rgb(248,115,50)"/>
<rect x="654" y="40" width="10" height="10" style="fill:rgb(248,115,50)"/>
<rect x="664" y="40" width="10" height="10" style="fill:rgb(255,192,203)"/>
<rect x="674" y="40" width="10" height="10" style="fill:rgb(255,192,203)"/>
<rect x="684" y="40" width="10" height="10" style="fill:rgb(61,35,112)"/>
</svg>
