<svg xmlns="http://www.w3.org/2000/svg" width="1000" height="50">
<rect x="0" y="0" width="10" height="10" style="fill:rgb(248,115,50)"/>
<rect x="10" y="0" width="10" height="10" style="fill:rgb(248,115,50)"/>
<rect x="20" y="0" width="10" height="10" style="fill:rgb(255,192,203)"/>
<rect x="30" y="0" width="10" height="10" style="fill:rgb(255,192,203)"/>
<rect x="40" y="0" width="10" height="10" style="fill:rgb(255,192,203)"/>
<rect x="50" y="0" width="10" height="10" style="fill:rgb(61,35,112)"/>
<rect x="60" y="0" width="10" height="10" style="fill:rgb(61,35,112)"/>
<rect x="70" y="0" width="10" height="10" style="fill:rgb(61,35,112)"/>
<rect x="0" y="10" width="10" height="10" style="fill:rgb(248,115,50)"/>
<rect x="10" y="10" width="10" height="10" style="fill:rgb(112,90,69)"/>
<rect x="20" y="10" width="10" height="10" style="fill:rgb(255,192,203)"/>
<rect x="30" y="10" width="10" height="10" style="fill:rgb(255,192,203)"/>
<rect x="40" y="10" width="10" height="10" style="fill:rgb(61,35,112)"/>
<rect x="50" y="10" width="10" height="10" style="fill:rgb(61,35,112)"/>
<rect x="60" y="10" width="10" height="10" style="fill:rgb(31,183,223)"/>
<rect x="70" y="10" width="10" height="10" style="fill:rgb(31,183,223)"/>
<rect x="0" y="20" width="10" height="10" style="fill:rgb(248,115,50)"/>
<rect x="10" y="20" width="10" height="10" style="fill:rgb(112,90,69)"/>
<rect x="20" y="20" width="10" height="10" style="fill:rgb(112,90,69)"/>
<rect x="30" y="20" width="10" height="10" style="fill:rgb(32,148,52)"/>
<rect x="40" y="20" width="10" height="10" style="fill:rgb(32,148,52)"/>
<rect x="50" y="20" width="10" height="10" style="fill:rgb(32,148,52)"/>
<rect x="60" y="20" width="10" height="10" style="fill:rgb(31,183,223)"/>
<rect x="70" y="20" width="10" height="10" style="fill:rgb(19,148,191)"/>
<rect x="0" y="30" width="10" height="10" style="fill:rgb(248,115,50)"/>
<rect x="10" y="30" width="10" height="10" style="fill:rgb(121,68,50)"/>
<rect x="20" y="30" width="10" height="10" style="fill:rgb(112,90,69)"/>
<rect x="30" y="30" width="10" height="10" style="fill:rgb(112,90,69)"/>
<rect x="40" y="30" width="10" height="10" style="fill:rgb(32,148,52)"/>
<rect x="50" y="30" width="10" height="10" style="fill:rgb(31,183,223)"/>
<rect x="60" y="30" width="10" height="10" style="fill:rgb(31,183,223)"/>
<rect x="70" y="30" width="10" height="10" style="fill:rgb(19,148,191)"/>
<rect x="0" y="40" width="10" height="10" style="fill:rgb(121,68,50)"/>
<rect x="10" y="40" width="10" height="10" style="fill:rgb(121,68,50)"/>
<rect x="20" y="40" width="10" height="10" style="fill:rgb(121,68,50)"/>
<rect x="30" y="40" width="10" height="10" style="fill:rgb(121,68,50)"/>
<rect x="40" y="40" width="10" height="10" style="fill:rgb(32,148,52)"/>
<rect x="50" y="40" width="10" height="10" style="fill:rgb(19,148,191)"/>
<rect x="60" y="40" width="10" height="10" style="fill:rgb(19,148,191)"/>
<rect x="70" y="40" width="10" height="10" style="fill:rgb(19,148,191)"/>
<rect x="88" y="0" width="10" height="10" style="fill:rgb(248,115,50)"/>
<rect x="98" y="0" width="10" height="10" style="fill:rgb(248,115,50)"/>
<rect x="108" y="0" width="10" height="10" style="fill:rgb(112,90,69)"/>
<rect x="118" y="0" width="10" height="10" style="fill:rgb(112,90,69)"/>
<rect x="128" y="0" width="10" height="10" style="fill:rgb(61,35,112)"/>
<rect x="138" y="0" width="10" height="10" style="fill:rgb(61,35,112)"/>
<rect x="148" y="0" width="10" height="10" style="fill:rgb(61,35,112)"/>
<rect x="158" y="0" width="10" height="10" style="fill:rgb(32,148,52)"/>
<rect x="88" y="10" width="10" height="10" style="fill:rgb(248,115,50)"/>
<rect x="98" y="10" width="10" height="10" style="fill:rgb(112,90,69)"/>
<rect x="108" y="10" width="10" height="10" style="fill:rgb(112,90,69)"/>
<rect x="118" y="10" width="10" height="10" style="fill:rgb(61,35,112)"/>
<rect x="128" y="10" width="10" height="10" style="fill:rgb(61,35,112)"/>
<rect x="138" y="10" width="10" height="10" style="fill:rgb(32,148,52)"/>
<rect x="148" y="10" width="10" height="10" style="fill:rgb(32,148,52)"/>
<rect x="158" y="10" width="10" height="10" style="fill:rgb(32,148,52)"/>
<rect x="88" y="20" width="10" height="10" style="fill:rgb(248,115,50)"/>
<rect x="98" y="20" width="10" height="10" style="fill:rgb(112,90,69)"/>
<rect x="108" y="20" width="10" height="10" style="fill:rgb(31,183,223)"/>
<rect x="118" y="20" width="10" height="10" style="fill:rgb(19,148,191)"/>
<rect x="128" y="20" width="10" height="10" style="fill:rgb(19,148,191)"/>
<rect x="138" y="20" width="10" height="10" style="fill:rgb(19,148,191)"/>
<rect x="148" y="20" width="10" height="10" style="fill:rgb(255,192,203)"/>
<rect x="158" y="20" width="10" height="10" style="fill:rgb(32,148,52)"/>
<rect x="88" y="30" width="10" height="10" style="fill:rgb(248,115,50)"/>
<rect x="98" y="30" width="10" height="10" style="fill:rgb(121,68,50)"/>
<rect x="108" y="30" width="10" height="10" style="fill:rgb(31,183,223)"/>
<rect x="118" y="30" width="10" height="10" style="fill:rgb(31,183,223)"/>
<rect x="128" y="30" width="10" height="10" style="fill:rgb(31,183,223)"/>
<rect x="138" y="30" width="10" height="10" style="fill:rgb(19,148,191)"/>
<rect x="148" y="30" width="10" height="10" style="fill:rgb(255,192,203)"/>
<rect x="158" y="30" width="10" height="10" style="fill:rgb(255,192,203)"/>
<rect x="88" y="40" width="10" height="10" style="fill:rgb(121,68,50)"/>
<rect x="98" y="40" width="10" height="10" style="fill:rgb(121,68,50)"/>
<rect x="108" y="40" width="10" height="10" style="fill:rgb(121,68,50)"/>
<rect x="118" y="40" width="10" height="10" style="fill:rgb(121,68,50)"/>
<rect x="128" y="40" width="10" height="10" style="fill:rgb(31,183,223)"/>
<rect x="138" y="40" width="10" height="10" style="fill:rgb(19,148,191)"/>
<rect x="148" y="40" width="10" height="10" style="fill:rgb(255,192,203)"/>
<rect x="158" y="40" width="10" height="10" style="fill:rgb(255,192,203)"/>
<rect x="176" y="0" width="10" height="10" style="fill:rgb(32,148,52)"/>
<rect x="186" y="0" width="10" height="10" style="fill:rgb(248,115,50)"/>
<rect x="196" y="0" width="10" height="10" style="fill:rgb(248,115,50)"/>
<rect x="206" y="0" width="10" height="10" style="fill:rgb(248,115,50)"/>
<rect x="216" y="0" width="10" height="10" style="fill:rgb(248,115,50)"/>
<rect x="226" y="0" width="10" height="10" style="fill:rgb(19,148,191)"/>
<rect x="236" y="0" width="10" height="10" style="fill:rgb(19,148,191)"/>
<rect x="246" y="0" width="10" height="10" style="fill:rgb(19,148,191)"/>
<rect x="176" y="10" width="10" height="10" style="fill:rgb(32,148,52)"/>
<rect x="186" y="10" width="10" height="10" style="fill:rgb(32,148,52)"/>
<rect x="196" y="10" width="10" height="10" style="fill:rgb(32,148,52)"/>
<rect x="206" y="10" width="10" height="10" style="fill:rgb(61,35,112)"/>
<rect x="216" y="10" width="10" height="10" style="fill:rgb(248,115,50)"/>
<rect x="226" y="10" width="10" height="10" style="fill:rgb(31,183,223)"/>
<rect x="236" y="10" width="10" height="10" style="fill:rgb(31,183,223)"/>
<rect x="246" y="10" width="10" height="10" style="fill:rgb(19,148,191)"/>
<rect x="176" y="20" width="10" height="10" style="fill:rgb(32,148,52)"/>
<rect x="186" y="20" width="10" height="10" style="fill:rgb(255,192,203)"/>
<rect x="196" y="20" width="10" height="10" style="fill:rgb(61,35,112)"/>
<rect x="206" y="20" width="10" height="10" style="fill:rgb(61,35,112)"/>
<rect x="216" y="20" width="10" height="10" style="fill:rgb(112,90,69)"/>
<rect x="226" y="20" width="10" height="10" style="fill:rgb(112,90,69)"/>
<rect x="236" y="20" width="10" height="10" style="fill:rgb(31,183,223)"/>
<rect x="246" y="20" width="10" height="10" style="fill:rgb(19,148,191)"/>
<rect x="176" y="30" width="10" height="10" style="fill:rgb(255,192,203)"/>
<rect x="186" y="30" width="10" height="10" style="fill:rgb(255,192,203)"/>
<rect x="196" y="30" width="10" height="10" style="fill:rgb(61,35,112)"/>
<rect x="206" y="30" width="10" height="10" style="fill:rgb(112,90,69)"/>
<rect x="216" y="30" width="10" height="10" style="fill:rgb(112,90,69)"/>
<rect x="226" y="30" width="10" height="10" style="fill:rgb(121,68,50)"/>
<rect x="236" y="30" width="10" height="10" style="fill:rgb(31,183,223)"/>
<rect x="246" y="30" width="10" height="10" style="fill:rgb(31,183,223)"/>
<rect x="176" y="40" width="10" height="10" style="fill:rgb(255,192,203)"/>
<rect x="186" y="40" width="10" height="10" style="fill:rgb(255,192,203)"/>
<rect x="196" y="40" width="10" height="10" style="fill:rgb(61,35,112)"/>
<rect x="206" y="40" width="10" height="10" style="fill:rgb(112,90,69)"/>
<rect x="216" y="40" width="10" height="10" style="fill:rgb(121,68,50)"/>
<rect x="226" y="40" width="10" height="10" style="fill:rgb(121,68,50)"/>
<rect x="236" y="40" width="10" height="10" style="fill:rgb(121,68,50)"/>
<rect x="246" y="40" width="10" height="10" style="fill:rgb(121,68,50)"/>
<rect x="264" y="0" width="10" height="10" style="fill:rgb(19,148,191)"/>
<rect x="274" y="0" width="10" height="10" style="fill:rgb(19,148,191)"/>
<rect x="284" y="0" width="10" height="10" style="fill:rgb(19,148,191)"/>
<rect x="294" y="0" width="10" height="10" style="fill:rgb(32,148,52)"/>
<rect x="304" y="0" width="10" height="10" style="fill:rgb(248,115,50)"/>
<rect x="314" y="0" width="10" height="10" style="fill:rgb(248,115,50)"/>
<rect x="324" y="0" width="10" height="10" style="fill:rgb(248,115,50)"/>
<rect x="334" y="0" width="10" height="10" style="fill:rgb(248,115,50)"/>
<rect x="264" y="10" width="10" height="10" style="fill:rgb(19,148,191)"/>
<rect x="274" y="10" width="10" height="10" style="fill:rgb(32,148,52)"/>
<rect x="284" y="10" width="10" height="10" style="fill:rgb(32,148,52)"/>
<rect x="294" y="10" width="10" height="10" style="fill:rgb(32,148,52)"/>
<rect x="304" y="10" width="10" height="10" style="fill:rgb(31,183,223)"/>
<rect x="314" y="10" width="10" height="10" style="fill:rgb(31,183,223)"/>
<rect x="324" y="10" width="10" height="10" style="fill:rgb(61,35,112)"/>
<rect x="334" y="10" width="10" height="10" style="fill:rgb(248,115,50)"/>
<rect x="264" y="20" width="10" height="10" style="fill:rgb(19,148,191)"/>
<rect x="274" y="20" width="10" height="10" style="fill:rgb(112,90,69)"/>
<rect x="284" y="20" width="10" height="10" style="fill:rgb(112,90,69)"/>
<rect x="294" y="20" width="10" height="10" style="fill:rgb(32,148,52)"/>
<rect x="304" y="20" width="10" height="10" style="fill:rgb(31,183,223)"/>
<rect x="314" y="20" width="10" height="10" style="fill:rgb(255,192,203)"/>
<rect x="324" y="20" width="10" height="10" style="fill:rgb(61,35,112)"/>
<rect x="334" y="20" width="10" height="10" style="fill:rgb(61,35,112)"/>
<rect x="264" y="30" width="10" height="10" style="fill:rgb(112,90,69)"/>
<rect x="274" y="30" width="10" height="10" style="fill:rgb(112,90,69)"/>
<rect x="284" y="30" width="10" height="10" style="fill:rgb(121,68,50)"/>
<rect x="294" y="30" width="10" height="10" style="fill:rgb(31,183,223)"/>
<rect x="304" y="30" width="10" height="10" style="fill:rgb(31,183,223)"/>
<rect x="314" y="30" width="10" height="10" style="fill:rgb(255,192,203)"/>
<rect x="324" y="30" width="10" height="10" style="fill:rgb(255,192,203)"/>
<rect x="334" y="30" width="10" height="10" style="fill:rgb(61,35,112)"/>
<rect x="264" y="40" width="10" height="10" style="fill:rgb(112,90,69)"/>
<rect x="274" y="40" width="10" height="10" style="fill:rgb(121,68,50)"/>
<rect x="284" y="40" width="10" height="10" style="fill:rgb(121,68,50)"/>
<rect x="294" y="40" width="10" height="10" style="fill:rgb(121,68,50)"/>
<rect x="304" y="40" width="10" height="10" style="fill:rgb(121,68,50)"/>
<rect x="314" y="40" width="10" height="10" style="fill:rgb(255,192,203)"/>
<rect x="324" y="40" width="10" height="10" style="fill:rgb(255,192,203)"/>
<rect x="334" y="40" width="10" height="10" style="fill:rgb(61,35,112)"/>
<rect x="352" y="0" width="10" height="10" style="fill:rgb(19,148,191)"/>
<rect x="362" y="0" width="10" height="10" style="fill:rgb(19,148,191)"/>
<rect x="372" y="0" width="10" height="10" style="fill:rgb(19,148,191)"/>
<rect x="382" y="0" width="10" height="10" style="fill:rgb(32,148,52)"/>
<rect x="392" y="0" width="10" height="10" style="fill:rgb(248,115,50)"/>
<rect x="402" y="0" width="10" height="10" style="fill:rgb(248,115,50)"/>
<rect x="412" y="0" width="10" height="10" style="fill:rgb(248,115,50)"/>
<rect x="422" y="0" width="10" height="10" style="fill:rgb(248,115,50)"/>
<rect x="352" y="10" width="10" height="10" style="fill:rgb(19,148,191)"/>
<rect x="362" y="10" width="10" height="10" style="fill:rgb(32,148,52)"/>
<rect x="372" y="10" width="10" height="10" style="fill:rgb(32,148,52)"/>
<rect x="382" y="10" width="10" height="10" style="fill:rgb(32,148,52)"/>
<rect x="392" y="10" width="10" height="10" style="fill:rgb(31,183,223)"/>
<rect x="402" y="10" width="10" height="10" style="fill:rgb(31,183,223)"/>
<rect x="412" y="10" width="10" height="10" style="fill:rgb(61,35,112)"/>
<rect x="422" y="10" width="10" height="10" style="fill:rgb(248,115,50)"/>
<rect x="352" y="20" width="10" height="10" style="fill:rgb(19,148,191)"/>
<rect x="362" y="20" width="10" height="10" style="fill:rgb(112,90,69)"/>
<rect x="372" y="20" width="10" height="10" style="fill:rgb(112,90,69)"/>
<rect x="382" y="20" width="10" height="10" style="fill:rgb(32,148,52)"/>
<rect x="392" y="20" width="10" height="10" style="fill:rgb(31,183,223)"/>
<rect x="402" y="20" width="10" height="10" style="fill:rgb(61,35,112)"/>
<rect x="412" y="20" width="10" height="10" style="fill:rgb(61,35,112)"/>
<rect x="422" y="20" width="10" height="10" style="fill:rgb(255,192,203)"/>
<rect x="352" y="30" width="10" height="10" style="fill:rgb(112,90,69)"/>
<rect x="362" y="30" width="10" height="10" style="fill:rgb(112,90,69)"/>
<rect x="372" y="30" width="10" height="10" style="fill:rgb(121,68,50)"/>
<rect x="382" y="30" width="10" height="10" style="fill:rgb(31,183,223)"/>
<rect x="392" y="30" width="10" height="10" style="fill:rgb(31,183,223)"/>
<rect x="402" y="30" width="10" height="10" style="fill:rgb(61,35,112)"/>
<rect x="412" y="30" width="10" height="10" style="fill:rgb(255,192,203)"/>
<rect x="422" y="30" width="10" height="10" style="fill:rgb(255,192,203)"/>
<rect x="352" y="40" width="10" height="10" style="fill:rgb(112,90,69)"/>
<rect x="362" y="40" width="10" height="10" style="fill:rgb(121,68,50)"/>
<rect x="372" y="40" width="10" height="10" style="fill:rgb(121,68,50)"/>
<rect x="382" y="40" width="10" height="10" style="fill:rgb(121,68,50)"/>
<rect x="392" y="40" width="10" height="10" style="fill:rgb(121,68,50)"/>
<rect x="402" y="40" width="10" height="10" style="fill:rgb(61,35,112)"/>
<rect x="412" y="40" width="10" height="10" style="fill:rgb(255,192,203)"/>
<rect x="422" y="40" width="10" height="10" style="fill:rgb(255,192,203)"/>
<rect x="440" y="0" width="10" height="10" style="fill:rgb(32,148,52)"/>
<rect x="450" y="0" width="10" height="10" style="fill:rgb(19,148,191)"/>
<rect x="460" y="0" width="10" height="10" style="fill:rgb(19,148,191)"/>
<rect x="470" y="0" width="10" height="10" style="fill:rgb(19,148,191)"/>
<rect x="480" y="0" width="10" height="10" style="fill:rgb(248,115,50)"/>
<rect x="490" y="0" width="10" height="10" style="fill:rgb(248,115,50)"/>
<rect x="500" y="0" width="10" height="10" style="fill:rgb(248,115,50)"/>
<rect x="510" y="0" width="10" height="10" style="fill:rgb(248,115,50)"/>
<rect x="440" y="10" width="10" height="10" style="fill:rgb(32,148,52)"/>
<rect x="450" y="10" width="10" height="10" style="fill:rgb(32,148,52)"/>
<rect x="460" y="10" width="10" height="10" style="fill:rgb(32,148,52)"/>
<rect x="470" y="10" width="10" height="10" style="fill:rgb(19,148,191)"/>
<rect x="480" y="10" width="10" height="10" style="fill:rgb(31,183,223)"/>
<rect x="490" y="10" width="10" height="10" style="fill:rgb(31,183,223)"/>
<rect x="500" y="10" width="10" height="10" style="fill:rgb(61,35,112)"/>
<rect x="510" y="10" width="10" height="10" style="fill:rgb(248,115,50)"/>
<rect x="440" y="20" width="10" height="10" style="fill:rgb(32,148,52)"/>
<rect x="450" y="20" width="10" height="10" style="fill:rgb(112,90,69)"/>
<rect x="460" y="20" width="10" height="10" style="fill:rgb(112,90,69)"/>
<rect x="470" y="20" width="10" height="10" style="fill:rgb(19,148,191)"/>
<rect x="480" y="20" width="10" height="10" style="fill:rgb(31,183,223)"/>
<rect x="490" y="20" width="10" height="10" style="fill:rgb(255,192,203)"/>
<rect x="500" y="20" width="10" height="10" style="fill:rgb(61,35,112)"/>
<rect x="510" y="20" width="10" height="10" style="fill:rgb(61,35,112)"/>
<rect x="440" y="30" width="10" height="10" style="fill:rgb(112,90,69)"/>
<rect x="450" y="30" width="10" height="10" style="fill:rgb(112,90,69)"/>
<rect x="460" y="30" width="10" height="10" style="fill:rgb(121,68,50)"/>
<rect x="470" y="30" width="10" height="10" style="fill:rgb(31,183,223)"/>
<rect x="480" y="30" width="10" height="10" style="fill:rgb(31,183,223)"/>
<rect x="490" y="30" width="10" height="10" style="fill:rgb(255,192,203)"/>
<rect x="500" y="30" width="10" height="10" style="fill:rgb(255,192,203)"/>
<rect x="510" y="30" width="10" height="10" style="fill:rgb(61,35,112)"/>
<rect x="440" y="40" width="10" height="10" style="fill:rgb(112,90,69)"/>
<rect x="450" y="40" width="10" height="10" style="fill:rgb(121,68,50)"/>
<rect x="460" y="40" width="10" height="10" style="fill:rgb(121,68,50)"/>
<rect x="470" y="40" width="10" height="10" style="fill:rgb(121,68,50)"/>
<rect x="480" y="40" width="10" height="10" style="fill:rgb(121,68,50)"/>
<rect x="490" y="40" width="10" height="10" style="fill:rgb(255,192,203)"/>
<rect x="500" y="40" width="10" height="10" style="fill:rgb(255,192,203)"/>
<rect x="510" y="40" width="10" height="10" style="fill:rgb(61,35,112)"/>
<rect x="528" y="0" width="10" height="10" style="fill:rgb(32,148,52)"/>
<rect x="538" y="0" width="10" height="10" style="fill:rgb(19,148,191)"/>
<rect x="548" y="0" width="10" height="10" style="fill:rgb(19,148,191)"/>
<rect x="558" y="0" width="10" height="10" style="fill:rgb(19,148,191)"/>
<rect x="568" y="0" width="10" height="10" style="fill:rgb(248,115,50)"/>
<rect x="578" y="0" width="10" height="10" style="fill:rgb(248,115,50)"/>
<rect x="588" y="0" width="10" height="10" style="fill:rgb(248,115,50)"/>
<rect x="598" y="0" width="10" height="10" style="fill:rgb(248,115,50)"/>
<rect x="528" y="10" width="10" height="10" style="fill:rgb(32,148,52)"/>
<rect x="538" y="10" width="10" height="10" style="fill:rgb(32,148,52)"/>
<rect x="548" y="10" width="10" height="10" style="fill:rgb(32,148,52)"/>
<rect x="558" y="10" width="10" height="10" style="fill:rgb(19,148,191)"/>
<rect x="568" y="10" width="10" height="10" style="fill:rgb(31,183,223)"/>
<rect x="578" y="10" width="10" height="10" style="fill:rgb(31,183,223)"/>
<rect x="588" y="10" width="10" height="10" style="fill:rgb(61,35,112)"/>
<rect x="598" y="10" width="10" height="10" style="fill:rgb(248,115,50)"/>
<rect x="528" y="20" width="10" height="10" style="fill:rgb(32,148,52)"/>
<rect x="538" y="20" width="10" height="10" style="fill:rgb(112,90,69)"/>
<rect x="548" y="20" width="10" height="10" style="fill:rgb(112,90,69)"/>
<rect x="558" y="20" width="10" height="10" style="fill:rgb(19,148,191)"/>
<rect x="568" y="20" width="10" height="10" style="fill:rgb(31,183,223)"/>
<rect x="578" y="20" width="10" height="10" style="fill:rgb(61,35,112)"/>
<rect x="588" y="20" width="10" height="10" style="fill:rgb(61,35,112)"/>
<rect x="598" y="20" width="10" height="10" style="fill:rgb(255,192,203)"/>
<rect x="528" y="30" width="10" height="10" style="fill:rgb(112,90,69)"/>
<rect x="538" y="30" width="10" height="10" style="fill:rgb(112,90,69)"/>
<rect x="548" y="30" width="10" height="10" style="fill:rgb(121,68,50)"/>
<rect x="558" y="30" width="10" height="10" style="fill:rgb(31,183,223)"/>
<rect x="568" y="30" width="10" height="10" style="fill:rgb(31,183,223)"/>
<rect x="578" y="30" width="10" height="10" style="fill:rgb(61,35,112)"/>
<rect x="588" y="30" width="10" height="10" style="fill:rgb(255,192,203)"/>
<rect x="598" y="30" width="10" height="10" style="fill:rgb(255,192,203)"/>
<rect x="528" y="40" width="10" height="10" style="fill:rgb(112,90,69)"/>
<rect x="538" y="40" width="10" height="10" style="fill:rgb(121,68,50)"/>
<rect x="548" y="40" width="10" height="10" style="fill:rgb(121,68,50)"/>
<rect x="558" y="40" width="10" height="10" style="fill:rgb(121,68,50)"/>
<rect x="568" y="40" width="10" height="10" style="fill:rgb(121,68,50)"/>
<rect x="578" y="40" width="10" height="10" style="fill:rgb(61,35,112)"/>
<rect x="588" y="40" width="10" height="10" style="fill:rgb(255,192,203)"/>
<rect x="598" y="40" width="10" height="10" style="fill:rgb(255,192,203)"/>
<rect x="616" y="0" width="10" height="10" style="fill:rgb(19,148,191)"/>
<rect x="626" y="0" width="10" height="10" style="fill:rgb(19,148,191)"/>
<rect x="636" y="0" width="10" height="10" style="fill:rgb(19,148,191)"/>
<rect x="646" y="0" width="10" height="10" style="fill:rgb(32,148,52)"/>
<rect x="656" y="0" width="10" height="10" style="fill:rgb(248,115,50)"/>
<rect x="666" y="0" width="10" height="10" style="fill:rgb(248,115,50)"/>
<rect x="676" y="0" width="10" height="10" style="fill:rgb(248,115,50)"/>
<rect x="686" y="0" width="10" height="10" style="fill:rgb(248,115,50)"/>
<rect x="616" y="10" width="10" height="10" style="fill:rgb(19,148,191)"/>
<rect x="626" y="10" width="10" height="10" style="fill:rgb(31,183,223)"/>
<rect x="636" y="10" width="10" height="10" style="fill:rgb(31,183,223)"/>
<rect x="646" y="10" width="10" height="10" style="fill:rgb(32,148,52)"/>
<rect x="656" y="10" width="10" height="10" style="fill:rgb(32,148,52)"/>
<rect x="666" y="10" width="10" height="10" style="fill:rgb(32,148,52)"/>
<rect x="676" y="10" width="10" height="10" style="fill:rgb(61,35,112)"/>
<rect x="686" y="10" width="10" height="10" style="fill:rgb(248,115,50)"/>
<rect x="616" y="20" width="10" height="10" style="fill:rgb(19,148,191)"/>
<rect x="626" y="20" width="10" height="10" style="fill:rgb(255,192,203)"/>
<rect x="636" y="20" width="10" height="10" style="fill:rgb(31,183,223)"/>
<rect x="646" y="20" width="10" height="10" style="fill:rgb(32,148,52)"/>
<rect x="656" y="20" width="10" height="10" style="fill:rgb(112,90,69)"/>
<rect x="666" y="20" width="10" height="10" style="fill:rgb(112,90,69)"/>
<rect x="676" y="20" width="10" height="10" style="fill:rgb(61,35,112)"/>
<rect x="686" y="20" width="10" height="10" style="fill:rgb(61,35,112)"/>
<rect x="616" y="30" width="10" height="10" style="fill:rgb(255,192,203)"/>
<rect x="626" y="30" width="10" height="10" style="fill:rgb(255,192,203)"/>
<rect x="636" y="30" width="10" height="10" style="fill:rgb(31,183,223)"/>
<rect x="646" y="30" width="10" height="10" style="fill:rgb(31,183,223)"/>
<rect x="656" y="30" width="10" height="10" style="fill:rgb(121,68,50)"/>
<rect x="666" y="30" width="10" height="10" style="fill:rgb(112,90,69)"/>
<rect x="676" y="30" width="10" height="10" style="fill:rgb(112,90,69)"/>
<rect x="686" y="30" width="10" height="10" style="fill:rgb(61,35,112)"/>
<rect x="616" y="40" width="10" height="10" style="fill:rgb(255,192,203)"/>
<rect x="626" y="40" width="10" height="10" style="fill:rgb(255,192,203)"/>
<rect x="636" y="40" width="10" height="10" style="fill:rgb(121,68,50)"/>
<rect x="646" y="40" width="10" height="10" style="fill:rgb(121,68,50)"/>
<rect x="656" y="40" width="10" height="10" style="fill:rgb(121,68,50)"/>
<rect x="666" y="40" width="10" height="10" style="fill:rgb(121,68,50)"/>
<rect x="676" y="40" width="10" height="10" style="fill:rgb(112,90,69)"/>
<rect x="686" y="40" width="10" height="10" style="fill:rgb(61,35,112)"/>
<rect x="704" y="0" width="10" height="10" style="fill:rgb(61,35,112)"/>
<rect x="714" y="0" width="10" height="10" style="fill:rgb(32,148,52)"/>
<rect x="724" y="0" width="10" height="10" style="fill:rgb(32,148,52)"/>
<rect x="734" y="0" width="10" height="10" style="fill:rgb(32,148,52)"/>
<rect x="744" y="0" width="10" height="10" style="fill:rgb(248,115,50)"/>
<rect x="754" y="0" width="10" height="10" style="fill:rgb(248,115,50)"/>
<rect x="764" y="0" width="10" height="10" style="fill:rgb(248,115,50)"/>
<rect x="774" y="0" width="10" height="10" style="fill:rgb(248,115,50)"/>
<rect x="704" y="10" width="10" height="10" style="fill:rgb(61,35,112)"/>
<rect x="714" y="10" width="10" height="10" style="fill:rgb(61,35,112)"/>
<rect x="724" y="10" width="10" height="10" style="fill:rgb(32,148,52)"/>
<rect x="734" y="10" width="10" height="10" style="fill:rgb(31,183,223)"/>
<rect x="744" y="10" width="10" height="10" style="fill:rgb(31,183,223)"/>
<rect x="754" y="10" width="10" height="10" style="fill:rgb(112,90,69)"/>
<rect x="764" y="10" width="10" height="10" style="fill:rgb(112,90,69)"/>
<rect x="774" y="10" width="10" height="10" style="fill:rgb(248,115,50)"/>
<rect x="704" y="20" width="10" height="10" style="fill:rgb(19,148,191)"/>
<rect x="714" y="20" width="10" height="10" style="fill:rgb(61,35,112)"/>
<rect x="724" y="20" width="10" height="10" style="fill:rgb(32,148,52)"/>
<rect x="734" y="20" width="10" height="10" style="fill:rgb(31,183,223)"/>
<rect x="744" y="20" width="10" height="10" style="fill:rgb(112,90,69)"/>
<rect x="754" y="20" width="10" height="10" style="fill:rgb(112,90,69)"/>
<rect x="764" y="20" width="10" height="10" style="fill:rgb(255,192,203)"/>
<rect x="774" y="20" width="10" height="10" style="fill:rgb(255,192,203)"/>
<rect x="704" y="30" width="10" height="10" style="fill:rgb(19,148,191)"/>
<rect x="714" y="30" width="10" height="10" style="fill:rgb(61,35,112)"/>
<rect x="724" y="30" width="10" height="10" style="fill:rgb(31,183,223)"/>
<rect x="734" y="30" width="10" height="10" style="fill:rgb(31,183,223)"/>
<rect x="744" y="30" width="10" height="10" style="fill:rgb(112,90,69)"/>
<rect x="754" y="30" width="10" height="10" style="fill:rgb(121,68,50)"/>
<rect x="764" y="30" width="10" height="10" style="fill:rgb(255,192,203)"/>
<rect x="774" y="30" width="10" height="10" style="fill:rgb(255,192,203)"/>
<rect x="704" y="40" width="10" height="10" style="fill:rgb(19,148,191)"/>
<rect x="714" y="40" width="10" height="10" style="fill:rgb(19,148,191)"/>
<rect x="724" y="40" width="10" height="10" style="fill:rgb(19,148,191)"/>
<rect x="734" y="40" width="10" height="10" style="fill:rgb(121,68,50)"/>
<rect x="744" y="40" width="10" height="10" style="fill:rgb(121,68,50)"/>
<rect x="754" y="40" width="10" height="10" style="fill:rgb(121,68,50)"/>
<rect x="764" y="40" width="10" height="10" style="fill:rgb(121,68,50)"/>
<rect x="774" y="40" width="10" height="10" style="fill:rgb(255,192,203)"/>
<rect x="792" y="0" width="10" height="10" style="fill:rgb(32,148,52)"/>
<rect x="802" y="0" width="10" height="10" style="fill:rgb(61,35,112)"/>
<rect x="812" y="0" width="10" height="10" style="fill:rgb(61,35,112)"/>
<rect x="822" y="0" width="10" height="10" style="fill:rgb(61,35,112)"/>
<rect x="832" y="0" width="10" height="10" style="fill:rgb(248,115,50)"/>
<rect x="842" y="0" width="10" height="10" style="fill:rgb(248,115,50)"/>
<rect x="852" y="0" width="10" height="10" style="fill:rgb(248,115,50)"/>
<rect x="862" y="0" width="10" height="10" style="fill:rgb(248,115,50)"/>
<rect x="792" y="10" width="10" height="10" style="fill:rgb(32,148,52)"/>
<rect x="802" y="10" width="10" height="10" style="fill:rgb(32,148,52)"/>
<rect x="812" y="10" width="10" height="10" style="fill:rgb(32,148,52)"/>
<rect x="822" y="10" width="10" height="10" style="fill:rgb(61,35,112)"/>
<rect x="832" y="10" width="10" height="10" style="fill:rgb(61,35,112)"/>
<rect x="842" y="10" width="10" height="10" style="fill:rgb(112,90,69)"/>
<rect x="852" y="10" width="10" height="10" style="fill:rgb(112,90,69)"/>
<rect x="862" y="10" width="10" height="10" style="fill:rgb(248,115,50)"/>
<rect x="792" y="20" width="10" height="10" style="fill:rgb(32,148,52)"/>
<rect x="802" y="20" width="10" height="10" style="fill:rgb(255,192,203)"/>
<rect x="812" y="20" width="10" height="10" style="fill:rgb(19,148,191)"/>
<rect x="822" y="20" width="10" height="10" style="fill:rgb(19,148,191)"/>
<rect x="832" y="20" width="10" height="10" style="fill:rgb(19,148,191)"/>
<rect x="842" y="20" width="10" height="10" style="fill:rgb(31,183,223)"/>
<rect x="852" y="20" width="10" height="10" style="fill:rgb(112,90,69)"/>
<rect x="862" y="20" width="10" height="10" style="fill:rgb(112,90,69)"/>
<rect x="792" y="30" width="10" height="10" style="fill:rgb(255,192,203)"/>
<rect x="802" y="30" width="10" height="10" style="fill:rgb(255,192,203)"/>
<rect x="812" y="30" width="10" height="10" style="fill:rgb(19,148,191)"/>
<rect x="822" y="30" width="10" height="10" style="fill:rgb(31,183,223)"/>
<rect x="832" y="30" width="10" height="10" style="fill:rgb(31,183,223)"/>
<rect x="842" y="30" width="10" height="10" style="fill:rgb(31,183,223)"/>
<rect x="852" y="30" width="10" height="10" style="fill:rgb(121,68,50)"/>
<rect x="862" y="30" width="10" height="10" style="fill:rgb(112,90,69)"/>
<rect x="792" y="40" width="10" height="10" style="fill:rgb(255,192,203)"/>
<rect x="802" y="40" width="10" height="10" style="fill:rgb(255,192,203)"/>
<rect x="812" y="40" width="10" height="10" style="fill:rgb(19,148,191)"/>
<rect x="822" y="40" width="10" height="10" style="fill:rgb(31,183,223)"/>
<rect x="832" y="40" width="10" height="10" style="fill:rgb(121,68,50)"/>
<rect x="842" y="40" width="10" height="10" style="fill:rgb(121,68,50)"/>
<rect x="852" y="40" width="10" height="10" style="fill:rgb(121,68,50)"/>
<rect x="862" y="40" width="10" height="10" style="fill:rgb(121,68,50)"/>
</svg>
