<svg xmlns="http://www.w3.org/2000/svg" width="1000" height="50">
<rect x="0" y="0" width="10" height="10" style="fill:rgb(248,115,50)"/>
<rect x="10" y="0" width="10" height="10" style="fill:rgb(248,115,50)"/>
<rect x="20" y="0" width="10" height="10" style="fill:rgb(61,35,112)"/>
<rect x="30" y="0" width="10" height="10" style="fill:rgb(121,68,50)"/>
<rect x="40" y="0" width="10" height="10" style="fill:rgb(223,207,59)"/>
<rect x="50" y="0" width="10" height="10" style="fill:rgb(223,207,59)"/>
<rect x="0" y="10" width="10" height="10" style="fill:rgb(248,115,50)"/>
<rect x="10" y="10" width="10" height="10" style="fill:rgb(61,35,112)"/>
<rect x="20" y="10" width="10" height="10" style="fill:rgb(61,35,112)"/>
<rect x="30" y="10" width="10" height="10" style="fill:rgb(121,68,50)"/>
<rect x="40" y="10" width="10" height="10" style="fill:rgb(121,68,50)"/>
<rect x="50" y="10" width="10" height="10" style="fill:rgb(223,207,59)"/>
<rect x="0" y="20" width="10" height="10" style="fill:rgb(248,115,50)"/>
<rect x="10" y="20" width="10" height="10" style="fill:rgb(61,35,112)"/>
<rect x="20" y="20" width="10" height="10" style="fill:rgb(19,148,191)"/>
<rect x="30" y="20" width="10" height="10" style="fill:rgb(121,68,50)"/>
<rect x="40" y="20" width="10" height="10" style="fill:rgb(223,207,59)"/>
<rect x="50" y="20" width="10" height="10" style="fill:rgb(223,207,59)"/>
<rect x="0" y="30" width="10" height="10" style="fill:rgb(248,115,50)"/>
<rect x="10" y="30" width="10" height="10" style="fill:rgb(61,35,112)"/>
<rect x="20" y="30" width="10" height="10" style="fill:rgb(19,148,191)"/>
<rect x="30" y="30" width="10" height="10" style="fill:rgb(121,68,50)"/>
<rect x="40" y="30" width="10" height="10" style="fill:rgb(255,192,203)"/>
<rect x="50" y="30" width="10" height="10" style="fill:rgb(255,192,203)"/>
<rect x="0" y="40" width="10" height="10" style="fill:rgb(19,148,191)"/>
<rect x="10" y="40" width="10" height="10" style="fill:rgb(19,148,191)"/>
<rect x="20" y="40" width="10" height="10" style="fill:rgb(19,148,191)"/>
<rect x="30" y="40" width="10" height="10" style="fill:rgb(255,192,203)"/>
<rect x="40" y="40" width="10" height="10" style="fill:rgb(255,192,203)"/>
<rect x="50" y="40" width="10" height="10" style="fill:rgb(255,192,203)"/>
<rect x="68" y="0" width="10" height="10" style="fill:rgb(248,115,50)"/>
<rect x="78" y="0" width="10" height="10" style="fill:rgb(248,115,50)"/>
<rect x="88" y="0" width="10" height="10" style="fill:rgb(61,35,112)"/>
<rect x="98" y="0" width="10" height="10" style="fill:rgb(255,192,203)"/>
<rect x="108" y="0" width="10" height="10" style="fill:rgb(255,192,203)"/>
<rect x="118" y="0" width="10" height="10" style="fill:rgb(255,192,203)"/>
<rect x="68" y="10" width="10" height="10" style="fill:rgb(248,115,50)"/>
<rect x="78" y="10" width="10" height="10" style="fill:rgb(61,35,112)"/>
<rect x="88" y="10" width="10" height="10" style="fill:rgb(61,35,112)"/>
<rect x="98" y="10" width="10" height="10" style="fill:rgb(255,192,203)"/>
<rect x="108" y="10" width="10" height="10" style="fill:rgb(255,192,203)"/>
<rect x="118" y="10" width="10" height="10" style="fill:rgb(121,68,50)"/>
<rect x="68" y="20" width="10" height="10" style="fill:rgb(248,115,50)"/>
<rect x="78" y="20" width="10" height="10" style="fill:rgb(61,35,112)"/>
<rect x="88" y="20" width="10" height="10" style="fill:rgb(19,148,191)"/>
<rect x="98" y="20" width="10" height="10" style="fill:rgb(223,207,59)"/>
<rect x="108" y="20" width="10" height="10" style="fill:rgb(223,207,59)"/>
<rect x="118" y="20" width="10" height="10" style="fill:rgb(121,68,50)"/>
<rect x="68" y="30" width="10" height="10" style="fill:rgb(248,115,50)"/>
<rect x="78" y="30" width="10" height="10" style="fill:rgb(61,35,112)"/>
<rect x="88" y="30" width="10" height="10" style="fill:rgb(19,148,191)"/>
<rect x="98" y="30" width="10" height="10" style="fill:rgb(223,207,59)"/>
<rect x="108" y="30" width="10" height="10" style="fill:rgb(121,68,50)"/>
<rect x="118" y="30" width="10" height="10" style="fill:rgb(121,68,50)"/>
<rect x="68" y="40" width="10" height="10" style="fill:rgb(19,148,191)"/>
<rect x="78" y="40" width="10" height="10" style="fill:rgb(19,148,191)"/>
<rect x="88" y="40" width="10" height="10" style="fill:rgb(19,148,191)"/>
<rect x="98" y="40" width="10" height="10" style="fill:rgb(223,207,59)"/>
<rect x="108" y="40" width="10" height="10" style="fill:rgb(223,207,59)"/>
<rect x="118" y="40" width="10" height="10" style="fill:rgb(121,68,50)"/>
<rect x="136" y="0" width="10" height="10" style="fill:rgb(248,115,50)"/>
<rect x="146" y="0" width="10" height="10" style="fill:rgb(248,115,50)"/>
<rect x="156" y="0" width="10" height="10" style="fill:rgb(61,35,112)"/>
<rect x="166" y="0" width="10" height="10" style="fill:rgb(255,192,203)"/>
<rect x="176" y="0" width="10" height="10" style="fill:rgb(255,192,203)"/>
<rect x="186" y="0" width="10" height="10" style="fill:rgb(255,192,203)"/>
<rect x="136" y="10" width="10" height="10" style="fill:rgb(248,115,50)"/>
<rect x="146" y="10" width="10" height="10" style="fill:rgb(61,35,112)"/>
<rect x="156" y="10" width="10" height="10" style="fill:rgb(61,35,112)"/>
<rect x="166" y="10" width="10" height="10" style="fill:rgb(121,68,50)"/>
<rect x="176" y="10" width="10" height="10" style="fill:rgb(255,192,203)"/>
<rect x="186" y="10" width="10" height="10" style="fill:rgb(255,192,203)"/>
<rect x="136" y="20" width="10" height="10" style="fill:rgb(248,115,50)"/>
<rect x="146" y="20" width="10" height="10" style="fill:rgb(61,35,112)"/>
<rect x="156" y="20" width="10" height="10" style="fill:rgb(19,148,191)"/>
<rect x="166" y="20" width="10" height="10" style="fill:rgb(121,68,50)"/>
<rect x="176" y="20" width="10" height="10" style="fill:rgb(223,207,59)"/>
<rect x="186" y="20" width="10" height="10" style="fill:rgb(223,207,59)"/>
<rect x="136" y="30" width="10" height="10" style="fill:rgb(248,115,50)"/>
<rect x="146" y="30" width="10" height="10" style="fill:rgb(61,35,112)"/>
<rect x="156" y="30" width="10" height="10" style="fill:rgb(19,148,191)"/>
<rect x="166" y="30" width="10" height="10" style="fill:rgb(121,68,50)"/>
<rect x="176" y="30" width="10" height="10" style="fill:rgb(121,68,50)"/>
<rect x="186" y="30" width="10" height="10" style="fill:rgb(223,207,59)"/>
<rect x="136" y="40" width="10" height="10" style="fill:rgb(19,148,191)"/>
<rect x="146" y="40" width="10" height="10" style="fill:rgb(19,148,191)"/>
<rect x="156" y="40" width="10" height="10" style="fill:rgb(19,148,191)"/>
<rect x="166" y="40" width="10" height="10" style="fill:rgb(121,68,50)"/>
<rect x="176" y="40" width="10" height="10" style="fill:rgb(223,207,59)"/>
<rect x="186" y="40" width="10" height="10" style="fill:rgb(223,207,59)"/>
<rect x="204" y="0" width="10" height="10" style="fill:rgb(248,115,50)"/>
<rect x="214" y="0" width="10" height="10" style="fill:rgb(248,115,50)"/>
<rect x="224" y="0" width="10" height="10" style="fill:rgb(61,35,112)"/>
<rect x="234" y="0" width="10" height="10" style="fill:rgb(223,207,59)"/>
<rect x="244" y="0" width="10" height="10" style="fill:rgb(223,207,59)"/>
<rect x="254" y="0" width="10" height="10" style="fill:rgb(121,68,50)"/>
<rect x="204" y="10" width="10" height="10" style="fill:rgb(248,115,50)"/>
<rect x="214" y="10" width="10" height="10" style="fill:rgb(61,35,112)"/>
<rect x="224" y="10" width="10" height="10" style="fill:rgb(61,35,112)"/>
<rect x="234" y="10" width="10" height="10" style="fill:rgb(223,207,59)"/>
<rect x="244" y="10" width="10" height="10" style="fill:rgb(121,68,50)"/>
<rect x="254" y="10" width="10" height="10" style="fill:rgb(121,68,50)"/>
<rect x="204" y="20" width="10" height="10" style="fill:rgb(248,115,50)"/>
<rect x="214" y="20" width="10" height="10" style="fill:rgb(61,35,112)"/>
<rect x="224" y="20" width="10" height="10" style="fill:rgb(19,148,191)"/>
<rect x="234" y="20" width="10" height="10" style="fill:rgb(223,207,59)"/>
<rect x="244" y="20" width="10" height="10" style="fill:rgb(223,207,59)"/>
<rect x="254" y="20" width="10" height="10" style="fill:rgb(121,68,50)"/>
<rect x="204" y="30" width="10" height="10" style="fill:rgb(248,115,50)"/>
<rect x="214" y="30" width="10" height="10" style="fill:rgb(61,35,112)"/>
<rect x="224" y="30" width="10" height="10" style="fill:rgb(19,148,191)"/>
<rect x="234" y="30" width="10" height="10" style="fill:rgb(255,192,203)"/>
<rect x="244" y="30" width="10" height="10" style="fill:rgb(255,192,203)"/>
<rect x="254" y="30" width="10" height="10" style="fill:rgb(121,68,50)"/>
<rect x="204" y="40" width="10" height="10" style="fill:rgb(19,148,191)"/>
<rect x="214" y="40" width="10" height="10" style="fill:rgb(19,148,191)"/>
<rect x="224" y="40" width="10" height="10" style="fill:rgb(19,148,191)"/>
<rect x="234" y="40" width="10" height="10" style="fill:rgb(255,192,203)"/>
<rect x="244" y="40" width="10" height="10" style="fill:rgb(255,192,203)"/>
<rect x="254" y="40" width="10" height="10" style="fill:rgb(255,192,203)"/>
<rect x="272" y="0" width="10" height="10" style="fill:rgb(121,68,50)"/>
<rect x="282" y="0" width="10" height="10" style="fill:rgb(223,207,59)"/>
<rect x="292" y="0" width="10" height="10" style="fill:rgb(223,207,59)"/>
<rect x="302" y="0" width="10" height="10" style="fill:rgb(248,115,50)"/>
<rect x="312" y="0" width="10" height="10" style="fill:rgb(248,115,50)"/>
<rect x="322" y="0" width="10" height="10" style="fill:rgb(61,35,112)"/>
<rect x="272" y="10" width="10" height="10" style="fill:rgb(121,68,50)"/>
<rect x="282" y="10" width="10" height="10" style="fill:rgb(121,68,50)"/>
<rect x="292" y="10" width="10" height="10" style="fill:rgb(223,207,59)"/>
<rect x="302" y="10" width="10" height="10" style="fill:rgb(248,115,50)"/>
<rect x="312" y="10" width="10" height="10" style="fill:rgb(61,35,112)"/>
<rect x="322" y="10" width="10" height="10" style="fill:rgb(61,35,112)"/>
<rect x="272" y="20" width="10" height="10" style="fill:rgb(121,68,50)"/>
<rect x="282" y="20" width="10" height="10" style="fill:rgb(223,207,59)"/>
<rect x="292" y="20" width="10" height="10" style="fill:rgb(223,207,59)"/>
<rect x="302" y="20" width="10" height="10" style="fill:rgb(248,115,50)"/>
<rect x="312" y="20" width="10" height="10" style="fill:rgb(61,35,112)"/>
<rect x="322" y="20" width="10" height="10" style="fill:rgb(19,148,191)"/>
<rect x="272" y="30" width="10" height="10" style="fill:rgb(121,68,50)"/>
<rect x="282" y="30" width="10" height="10" style="fill:rgb(255,192,203)"/>
<rect x="292" y="30" width="10" height="10" style="fill:rgb(255,192,203)"/>
<rect x="302" y="30" width="10" height="10" style="fill:rgb(248,115,50)"/>
<rect x="312" y="30" width="10" height="10" style="fill:rgb(61,35,112)"/>
<rect x="322" y="30" width="10" height="10" style="fill:rgb(19,148,191)"/>
<rect x="272" y="40" width="10" height="10" style="fill:rgb(255,192,203)"/>
<rect x="282" y="40" width="10" height="10" style="fill:rgb(255,192,203)"/>
<rect x="292" y="40" width="10" height="10" style="fill:rgb(255,192,203)"/>
<rect x="302" y="40" width="10" height="10" style="fill:rgb(19,148,191)"/>
<rect x="312" y="40" width="10" height="10" style="fill:rgb(19,148,191)"/>
<rect x="322" y="40" width="10" height="10" style="fill:rgb(19,148,191)"/>
<rect x="340" y="0" width="10" height="10" style="fill:rgb(255,192,203)"/>
<rect x="350" y="0" width="10" height="10" style="fill:rgb(255,192,203)"/>
<rect x="360" y="0" width="10" height="10" style="fill:rgb(255,192,203)"/>
<rect x="370" y="0" width="10" height="10" style="fill:rgb(248,115,50)"/>
<rect x="380" y="0" width="10" height="10" style="fill:rgb(248,115,50)"/>
<rect x="390" y="0" width="10" height="10" style="fill:rgb(61,35,112)"/>
<rect x="340" y="10" width="10" height="10" style="fill:rgb(255,192,203)"/>
<rect x="350" y="10" width="10" height="10" style="fill:rgb(255,192,203)"/>
<rect x="360" y="10" width="10" height="10" style="fill:rgb(121,68,50)"/>
<rect x="370" y="10" width="10" height="10" style="fill:rgb(248,115,50)"/>
<rect x="380" y="10" width="10" height="10" style="fill:rgb(61,35,112)"/>
<rect x="390" y="10" width="10" height="10" style="fill:rgb(61,35,112)"/>
<rect x="340" y="20" width="10" height="10" style="fill:rgb(223,207,59)"/>
<rect x="350" y="20" width="10" height="10" style="fill:rgb(223,207,59)"/>
<rect x="360" y="20" width="10" height="10" style="fill:rgb(121,68,50)"/>
<rect x="370" y="20" width="10" height="10" style="fill:rgb(248,115,50)"/>
<rect x="380" y="20" width="10" height="10" style="fill:rgb(61,35,112)"/>
<rect x="390" y="20" width="10" height="10" style="fill:rgb(19,148,191)"/>
<rect x="340" y="30" width="10" height="10" style="fill:rgb(223,207,59)"/>
<rect x="350" y="30" width="10" height="10" style="fill:rgb(121,68,50)"/>
<rect x="360" y="30" width="10" height="10" style="fill:rgb(121,68,50)"/>
<rect x="370" y="30" width="10" height="10" style="fill:rgb(248,115,50)"/>
<rect x="380" y="30" width="10" height="10" style="fill:rgb(61,35,112)"/>
<rect x="390" y="30" width="10" height="10" style="fill:rgb(19,148,191)"/>
<rect x="340" y="40" width="10" height="10" style="fill:rgb(223,207,59)"/>
<rect x="350" y="40" width="10" height="10" style="fill:rgb(223,207,59)"/>
<rect x="360" y="40" width="10" height="10" style="fill:rgb(121,68,50)"/>
<rect x="370" y="40" width="10" height="10" style="fill:rgb(19,148,191)"/>
<rect x="380" y="40" width="10" height="10" style="fill:rgb(19,148,191)"/>
<rect x="390" y="40" width="10" height="10" style="fill:rgb(19,148,191)"/>
<rect x="408" y="0" width="10" height="10" style="fill:rgb(255,192,203)"/>
<rect x="418" y="0" width="10" height="10" style="fill:rgb(255,192,203)"/>
<rect x="428" y="0" width="10" height="10" style="fill:rgb(255,192,203)"/>
<rect x="438" y="0" width="10" height="10" style="fill:rgb(248,115,50)"/>
<rect x="448" y="0" width="10" height="10" style="fill:rgb(248,115,50)"/>
<rect x="458" y="0" width="10" height="10" style="fill:rgb(61,35,112)"/>
<rect x="408" y="10" width="10" height="10" style="fill:rgb(121,68,50)"/>
<rect x="418" y="10" width="10" height="10" style="fill:rgb(255,192,203)"/>
<rect x="428" y="10" width="10" height="10" style="fill:rgb(255,192,203)"/>
<rect x="438" y="10" width="10" height="10" style="fill:rgb(248,115,50)"/>
<rect x="448" y="10" width="10" height="10" style="fill:rgb(61,35,112)"/>
<rect x="458" y="10" width="10" height="10" style="fill:rgb(61,35,112)"/>
<rect x="408" y="20" width="10" height="10" style="fill:rgb(121,68,50)"/>
<rect x="418" y="20" width="10" height="10" style="fill:rgb(223,207,59)"/>
<rect x="428" y="20" width="10" height="10" style="fill:rgb(223,207,59)"/>
<rect x="438" y="20" width="10" height="10" style="fill:rgb(248,115,50)"/>
<rect x="448" y="20" width="10" height="10" style="fill:rgb(61,35,112)"/>
<rect x="458" y="20" width="10" height="10" style="fill:rgb(19,148,191)"/>
<rect x="408" y="30" width="10" height="10" style="fill:rgb(121,68,50)"/>
<rect x="418" y="30" width="10" height="10" style="fill:rgb(121,68,50)"/>
<rect x="428" y="30" width="10" height="10" style="fill:rgb(223,207,59)"/>
<rect x="438" y="30" width="10" height="10" style="fill:rgb(248,115,50)"/>
<rect x="448" y="30" width="10" height="10" style="fill:rgb(61,35,112)"/>
<rect x="458" y="30" width="10" height="10" style="fill:rgb(19,148,191)"/>
<rect x="408" y="40" width="10" height="10" style="fill:rgb(121,68,50)"/>
<rect x="418" y="40" width="10" height="10" style="fill:rgb(223,207,59)"/>
<rect x="428" y="40" width="10" height="10" style="fill:rgb(223,207,59)"/>
<rect x="438" y="40" width="10" height="10" style="fill:rgb(19,148,191)"/>
<rect x="448" y="40" width="10" height="10" style="fill:rgb(19,148,191)"/>
<rect x="458" y="40" width="10" height="10" style="fill:rgb(19,148,191)"/>
<rect x="476" y="0" width="10" height="10" style="fill:rgb(223,207,59)"/>
<rect x="486" y="0" width="10" height="10" style="fill:rgb(223,207,59)"/>
<rect x="496" y="0" width="10" height="10" style="fill:rgb(121,68,50)"/>
<rect x="506" y="0" width="10" height="10" style="fill:rgb(248,115,50)"/>
<rect x="516" y="0" width="10" height="10" style="fill:rgb(248,115,50)"/>
<rect x="526" y="0" width="10" height="10" style="fill:rgb(61,35,112)"/>
<rect x="476" y="10" width="10" height="10" style="fill:rgb(223,207,59)"/>
<rect x="486" y="10" width="10" height="10" style="fill:rgb(121,68,50)"/>
<rect x="496" y="10" width="10" height="10" style="fill:rgb(121,68,50)"/>
<rect x="506" y="10" width="10" height="10" style="fill:rgb(248,115,50)"/>
<rect x="516" y="10" width="10" height="10" style="fill:rgb(61,35,112)"/>
<rect x="526" y="10" width="10" height="10" style="fill:rgb(61,35,112)"/>
<rect x="476" y="20" width="10" height="10" style="fill:rgb(223,207,59)"/>
<rect x="486" y="20" width="10" height="10" style="fill:rgb(223,207,59)"/>
<rect x="496" y="20" width="10" height="10" style="fill:rgb(121,68,50)"/>
<rect x="506" y="20" width="10" height="10" style="fill:rgb(248,115,50)"/>
<rect x="516" y="20" width="10" height="10" style="fill:rgb(61,35,112)"/>
<rect x="526" y="20" width="10" height="10" style="fill:rgb(19,148,191)"/>
<rect x="476" y="30" width="10" height="10" style="fill:rgb(255,192,203)"/>
<rect x="486" y="30" width="10" height="10" style="fill:rgb(255,192,203)"/>
<rect x="496" y="30" width="10" height="10" style="fill:rgb(121,68,50)"/>
<rect x="506" y="30" width="10" height="10" style="fill:rgb(248,115,50)"/>
<rect x="516" y="30" width="10" height="10" style="fill:rgb(61,35,112)"/>
<rect x="526" y="30" width="10" height="10" style="fill:rgb(19,148,191)"/>
<rect x="476" y="40" width="10" height="10" style="fill:rgb(255,192,203)"/>
<rect x="486" y="40" width="10" height="10" style="fill:rgb(255,192,203)"/>
<rect x="496" y="40" width="10" height="10" style="fill:rgb(255,192,203)"/>
<rect x="506" y="40" width="10" height="10" style="fill:rgb(19,148,191)"/>
<rect x="516" y="40" width="10" height="10" style="fill:rgb(19,148,191)"/>
<rect x="526" y="40" width="10" height="10" style="fill:rgb(19,148,191)"/>
<rect x="544" y="0" width="10" height="10" style="fill:rgb(248,115,50)"/>
<rect x="554" y="0" width="10" height="10" style="fill:rgb(248,115,50)"/>
<rect x="564" y="0" width="10" height="10" style="fill:rgb(248,115,50)"/>
<rect x="574" y="0" width="10" height="10" style="fill:rgb(248,115,50)"/>
<rect x="584" y="0" width="10" height="10" style="fill:rgb(255,192,203)"/>
<rect x="594" y="0" width="10" height="10" style="fill:rgb(255,192,203)"/>
<rect x="544" y="10" width="10" height="10" style="fill:rgb(61,35,112)"/>
<rect x="554" y="10" width="10" height="10" style="fill:rgb(61,35,112)"/>
<rect x="564" y="10" width="10" height="10" style="fill:rgb(61,35,112)"/>
<rect x="574" y="10" width="10" height="10" style="fill:rgb(248,115,50)"/>
<rect x="584" y="10" width="10" height="10" style="fill:rgb(255,192,203)"/>
<rect x="594" y="10" width="10" height="10" style="fill:rgb(255,192,203)"/>
<rect x="544" y="20" width="10" height="10" style="fill:rgb(223,207,59)"/>
<rect x="554" y="20" width="10" height="10" style="fill:rgb(223,207,59)"/>
<rect x="564" y="20" width="10" height="10" style="fill:rgb(61,35,112)"/>
<rect x="574" y="20" width="10" height="10" style="fill:rgb(61,35,112)"/>
<rect x="584" y="20" width="10" height="10" style="fill:rgb(255,192,203)"/>
<rect x="594" y="20" width="10" height="10" style="fill:rgb(19,148,191)"/>
<rect x="544" y="30" width="10" height="10" style="fill:rgb(223,207,59)"/>
<rect x="554" y="30" width="10" height="10" style="fill:rgb(121,68,50)"/>
<rect x="564" y="30" width="10" height="10" style="fill:rgb(121,68,50)"/>
<rect x="574" y="30" width="10" height="10" style="fill:rgb(121,68,50)"/>
<rect x="584" y="30" width="10" height="10" style="fill:rgb(121,68,50)"/>
<rect x="594" y="30" width="10" height="10" style="fill:rgb(19,148,191)"/>
<rect x="544" y="40" width="10" height="10" style="fill:rgb(223,207,59)"/>
<rect x="554" y="40" width="10" height="10" style="fill:rgb(223,207,59)"/>
<rect x="564" y="40" width="10" height="10" style="fill:rgb(121,68,50)"/>
<rect x="574" y="40" width="10" height="10" style="fill:rgb(19,148,191)"/>
<rect x="584" y="40" width="10" height="10" style="fill:rgb(19,148,191)"/>
<rect x="594" y="40" width="10" height="10" style="fill:rgb(19,148,191)"/>
<rect x="612" y="0" width="10" height="10" style="fill:rgb(61,35,112)"/>
<rect x="622" y="0" width="10" height="10" style="fill:rgb(61,35,112)"/>
<rect x="632" y="0" width="10" height="10" style="fill:rgb(248,115,50)"/>
<rect x="642" y="0" width="10" height="10" style="fill:rgb(248,115,50)"/>
<rect x="652" y="0" width="10" height="10" style="fill:rgb(248,115,50)"/>
<rect x="662" y="0" width="10" height="10" style="fill:rgb(248,115,50)"/>
<rect x="612" y="10" width="10" height="10" style="fill:rgb(121,68,50)"/>
<rect x="622" y="10" width="10" height="10" style="fill:rgb(61,35,112)"/>
<rect x="632" y="10" width="10" height="10" style="fill:rgb(61,35,112)"/>
<rect x="642" y="10" width="10" height="10" style="fill:rgb(61,35,112)"/>
<rect x="652" y="10" width="10" height="10" style="fill:rgb(255,192,203)"/>
<rect x="662" y="10" width="10" height="10" style="fill:rgb(248,115,50)"/>
<rect x="612" y="20" width="10" height="10" style="fill:rgb(121,68,50)"/>
<rect x="622" y="20" width="10" height="10" style="fill:rgb(223,207,59)"/>
<rect x="632" y="20" width="10" height="10" style="fill:rgb(223,207,59)"/>
<rect x="642" y="20" width="10" height="10" style="fill:rgb(255,192,203)"/>
<rect x="652" y="20" width="10" height="10" style="fill:rgb(255,192,203)"/>
<rect x="662" y="20" width="10" height="10" style="fill:rgb(19,148,191)"/>
<rect x="612" y="30" width="10" height="10" style="fill:rgb(121,68,50)"/>
<rect x="622" y="30" width="10" height="10" style="fill:rgb(121,68,50)"/>
<rect x="632" y="30" width="10" height="10" style="fill:rgb(223,207,59)"/>
<rect x="642" y="30" width="10" height="10" style="fill:rgb(255,192,203)"/>
<rect x="652" y="30" width="10" height="10" style="fill:rgb(255,192,203)"/>
<rect x="662" y="30" width="10" height="10" style="fill:rgb(19,148,191)"/>
<rect x="612" y="40" width="10" height="10" style="fill:rgb(121,68,50)"/>
<rect x="622" y="40" width="10" height="10" style="fill:rgb(223,207,59)"/>
<rect x="632" y="40" width="10" height="10" style="fill:rgb(223,207,59)"/>
<rect x="642" y="40" width="10" height="10" style="fill:rgb(19,148,191)"/>
<rect x="652" y="40" width="10" height="10" style="fill:rgb(19,148,191)"/>
<rect x="662" y="40" width="10" height="10" style="fill:rgb(19,148,191)"/>
<rect x="680" y="0" width="10" height="10" style="fill:rgb(255,192,203)"/>
<rect x="690" y="0" width="10" height="10" style="fill:rgb(255,192,203)"/>
<rect x="700" y="0" width="10" height="10" style="fill:rgb(248,115,50)"/>
<rect x="710" y="0" width="10" height="10" style="fill:rgb(248,115,50)"/>
<rect x="720" y="0" width="10" height="10" style="fill:rgb(248,115,50)"/>
<rect x="730" y="0" width="10" height="10" style="fill:rgb(248,115,50)"/>
<rect x="680" y="10" width="10" height="10" style="fill:rgb(255,192,203)"/>
<rect x="690" y="10" width="10" height="10" style="fill:rgb(255,192,203)"/>
<rect x="700" y="10" width="10" height="10" style="fill:rgb(255,192,203)"/>
<rect x="710" y="10" width="10" height="10" style="fill:rgb(61,35,112)"/>
<rect x="720" y="10" width="10" height="10" style="fill:rgb(61,35,112)"/>
<rect x="730" y="10" width="10" height="10" style="fill:rgb(248,115,50)"/>
<rect x="680" y="20" width="10" height="10" style="fill:rgb(19,148,191)"/>
<rect x="690" y="20" width="10" height="10" style="fill:rgb(61,35,112)"/>
<rect x="700" y="20" width="10" height="10" style="fill:rgb(61,35,112)"/>
<rect x="710" y="20" width="10" height="10" style="fill:rgb(61,35,112)"/>
<rect x="720" y="20" width="10" height="10" style="fill:rgb(223,207,59)"/>
<rect x="730" y="20" width="10" height="10" style="fill:rgb(223,207,59)"/>
<rect x="680" y="30" width="10" height="10" style="fill:rgb(19,148,191)"/>
<rect x="690" y="30" width="10" height="10" style="fill:rgb(121,68,50)"/>
<rect x="700" y="30" width="10" height="10" style="fill:rgb(121,68,50)"/>
<rect x="710" y="30" width="10" height="10" style="fill:rgb(121,68,50)"/>
<rect x="720" y="30" width="10" height="10" style="fill:rgb(121,68,50)"/>
<rect x="730" y="30" width="10" height="10" style="fill:rgb(223,207,59)"/>
<rect x="680" y="40" width="10" height="10" style="fill:rgb(19,148,191)"/>
<rect x="690" y="40" width="10" height="10" style="fill:rgb(19,148,191)"/>
<rect x="700" y="40" width="10" height="10" style="fill:rgb(19,148,191)"/>
<rect x="710" y="40" width="10" height="10" style="fill:rgb(121,68,50)"/>
<rect x="720" y="40" width="10" height="10" style="fill:rgb(223,207,59)"/>
<rect x="730" y="40" width="10" height="10" style="fill:rgb(223,207,59)"/>
<rect x="748" y="0" width="10" height="10" style="fill:rgb(61,35,112)"/>
<rect x="758" y="0" width="10" height="10" style="fill:rgb(61,35,112)"/>
<rect x="768" y="0" width="10" height="10" style="fill:rgb(248,115,50)"/>
<rect x="778" y="0" width="10" height="10" style="fill:rgb(248,115,50)"/>
<rect x="788" y="0" width="10" height="10" style="fill:rgb(248,115,50)"/>
<rect x="798" y="0" width="10" height="10" style="fill:rgb(248,115,50)"/>
<rect x="748" y="10" width="10" height="10" style="fill:rgb(121,68,50)"/>
<rect x="758" y="10" width="10" height="10" style="fill:rgb(61,35,112)"/>
<rect x="768" y="10" width="10" height="10" style="fill:rgb(61,35,112)"/>
<rect x="778" y="10" width="10" height="10" style="fill:rgb(61,35,112)"/>
<rect x="788" y="10" width="10" height="10" style="fill:rgb(255,192,203)"/>
<rect x="798" y="10" width="10" height="10" style="fill:rgb(248,115,50)"/>
<rect x="748" y="20" width="10" height="10" style="fill:rgb(121,68,50)"/>
<rect x="758" y="20" width="10" height="10" style="fill:rgb(223,207,59)"/>
<rect x="768" y="20" width="10" height="10" style="fill:rgb(223,207,59)"/>
<rect x="778" y="20" width="10" height="10" style="fill:rgb(19,148,191)"/>
<rect x="788" y="20" width="10" height="10" style="fill:rgb(255,192,203)"/>
<rect x="798" y="20" width="10" height="10" style="fill:rgb(255,192,203)"/>
<rect x="748" y="30" width="10" height="10" style="fill:rgb(121,68,50)"/>
<rect x="758" y="30" width="10" height="10" style="fill:rgb(121,68,50)"/>
<rect x="768" y="30" width="10" height="10" style="fill:rgb(223,207,59)"/>
<rect x="778" y="30" width="10" height="10" style="fill:rgb(19,148,191)"/>
<rect x="788" y="30" width="10" height="10" style="fill:rgb(255,192,203)"/>
<rect x="798" y="30" width="10" height="10" style="fill:rgb(255,192,203)"/>
<rect x="748" y="40" width="10" height="10" style="fill:rgb(121,68,50)"/>
<rect x="758" y="40" width="10" height="10" style="fill:rgb(223,207,59)"/>
<rect x="768" y="40" width="10" height="10" style="fill:rgb(223,207,59)"/>
<rect x="778" y="40" width="10" height="10" style="fill:rgb(19,148,191)"/>
<rect x="788" y="40" width="10" height="10" style="fill:rgb(19,148,191)"/>
<rect x="798" y="40" width="10" height="10" style="fill:rgb(19,148,191)"/>
<rect x="816" y="0" width="10" height="10" style="fill:rgb(121,68,50)"/>
<rect x="826" y="0" width="10" height="10" style="fill:rgb(61,35,112)"/>
<rect x="836" y="0" width="10" height="10" style="fill:rgb(61,35,112)"/>
<rect x="846" y="0" width="10" height="10" style="fill:rgb(19,148,191)"/>
<rect x="856" y="0" width="10" height="10" style="fill:rgb(19,148,191)"/>
<rect x="866" y="0" width="10" height="10" style="fill:rgb(19,148,191)"/>
<rect x="816" y="10" width="10" height="10" style="fill:rgb(121,68,50)"/>
<rect x="826" y="10" width="10" height="10" style="fill:rgb(121,68,50)"/>
<rect x="836" y="10" width="10" height="10" style="fill:rgb(61,35,112)"/>
<rect x="846" y="10" width="10" height="10" style="fill:rgb(61,35,112)"/>
<rect x="856" y="10" width="10" height="10" style="fill:rgb(61,35,112)"/>
<rect x="866" y="10" width="10" height="10" style="fill:rgb(19,148,191)"/>
<rect x="816" y="20" width="10" height="10" style="fill:rgb(121,68,50)"/>
<rect x="826" y="20" width="10" height="10" style="fill:rgb(248,115,50)"/>
<rect x="836" y="20" width="10" height="10" style="fill:rgb(248,115,50)"/>
<rect x="846" y="20" width="10" height="10" style="fill:rgb(248,115,50)"/>
<rect x="856" y="20" width="10" height="10" style="fill:rgb(248,115,50)"/>
<rect x="866" y="20" width="10" height="10" style="fill:rgb(19,148,191)"/>
<rect x="816" y="30" width="10" height="10" style="fill:rgb(121,68,50)"/>
<rect x="826" y="30" width="10" height="10" style="fill:rgb(255,192,203)"/>
<rect x="836" y="30" width="10" height="10" style="fill:rgb(255,192,203)"/>
<rect x="846" y="30" width="10" height="10" style="fill:rgb(223,207,59)"/>
<rect x="856" y="30" width="10" height="10" style="fill:rgb(248,115,50)"/>
<rect x="866" y="30" width="10" height="10" style="fill:rgb(223,207,59)"/>
<rect x="816" y="40" width="10" height="10" style="fill:rgb(255,192,203)"/>
<rect x="826" y="40" width="10" height="10" style="fill:rgb(255,192,203)"/>
<rect x="836" y="40" width="10" height="10" style="fill:rgb(255,192,203)"/>
<rect x="846" y="40" width="10" height="10" style="fill:rgb(223,207,59)"/>
<rect x="856" y="40" width="10" height="10" style="fill:rgb(223,207,59)"/>
<rect x="866" y="40" width="10" height="10" style="fill:rgb(223,207,59)"/>
<rect x="884" y="0" width="10" height="10" style="fill:rgb(121,68,50)"/>
<rect x="894" y="0" width="10" height="10" style="fill:rgb(121,68,50)"/>
<rect x="904" y="0" width="10" height="10" style="fill:rgb(121,68,50)"/>
<rect x="914" y="0" width="10" height="10" style="fill:rgb(121,68,50)"/>
<rect x="924" y="0" width="10" height="10" style="fill:rgb(255,192,203)"/>
<rect x="934" y="0" width="10" height="10" style="fill:rgb(255,192,203)"/>
<rect x="884" y="10" width="10" height="10" style="fill:rgb(223,207,59)"/>
<rect x="894" y="10" width="10" height="10" style="fill:rgb(223,207,59)"/>
<rect x="904" y="10" width="10" height="10" style="fill:rgb(121,68,50)"/>
<rect x="914" y="10" width="10" height="10" style="fill:rgb(255,192,203)"/>
<rect x="924" y="10" width="10" height="10" style="fill:rgb(255,192,203)"/>
<rect x="934" y="10" width="10" height="10" style="fill:rgb(255,192,203)"/>
<rect x="884" y="20" width="10" height="10" style="fill:rgb(223,207,59)"/>
<rect x="894" y="20" width="10" height="10" style="fill:rgb(248,115,50)"/>
<rect x="904" y="20" width="10" height="10" style="fill:rgb(248,115,50)"/>
<rect x="914" y="20" width="10" height="10" style="fill:rgb(248,115,50)"/>
<rect x="924" y="20" width="10" height="10" style="fill:rgb(248,115,50)"/>
<rect x="934" y="20" width="10" height="10" style="fill:rgb(19,148,191)"/>
<rect x="884" y="30" width="10" height="10" style="fill:rgb(223,207,59)"/>
<rect x="894" y="30" width="10" height="10" style="fill:rgb(223,207,59)"/>
<rect x="904" y="30" width="10" height="10" style="fill:rgb(61,35,112)"/>
<rect x="914" y="30" width="10" height="10" style="fill:rgb(61,35,112)"/>
<rect x="924" y="30" width="10" height="10" style="fill:rgb(248,115,50)"/>
<rect x="934" y="30" width="10" height="10" style="fill:rgb(19,148,191)"/>
<rect x="884" y="40" width="10" height="10" style="fill:rgb(61,35,112)"/>
<rect x="894" y="40" width="10" height="10" style="fill:rgb(61,35,112)"/>
<rect x="904" y="40" width="10" height="10" style="fill:rgb(61,35,112)"/>
<rect x="914" y="40" width="10" height="10" style="fill:rgb(19,148,191)"/>
<rect x="924" y="40" width="10" height="10" style="fill:rgb(19,148,191)"/>
<rect x="934" y="40" width="10" height="10" style="fill:rgb(19,148,191)"/>
</svg>
