<svg xmlns="http://www.w3.org/2000/svg" width="1000" height="50">
<rect x="0" y="0" width="10" height="10" style="fill:rgb(121,68,50)"/>
<rect x="10" y="0" width="10" height="10" style="fill:rgb(121,68,50)"/>
<rect x="20" y="0" width="10" height="10" style="fill:rgb(121,68,50)"/>
<rect x="30" y="0" width="10" height="10" style="fill:rgb(121,68,50)"/>
<rect x="0" y="10" width="10" height="10" style="fill:rgb(248,115,50)"/>
<rect x="10" y="10" width="10" height="10" style="fill:rgb(248,115,50)"/>
<rect x="20" y="10" width="10" height="10" style="fill:rgb(121,68,50)"/>
<rect x="30" y="10" width="10" height="10" style="fill:rgb(255,192,203)"/>
<rect x="0" y="20" width="10" height="10" style="fill:rgb(248,115,50)"/>
<rect x="10" y="20" width="10" height="10" style="fill:rgb(19,148,191)"/>
<rect x="20" y="20" width="10" height="10" style="fill:rgb(255,192,203)"/>
<rect x="30" y="20" width="10" height="10" style="fill:rgb(255,192,203)"/>
<rect x="0" y="30" width="10" height="10" style="fill:rgb(248,115,50)"/>
<rect x="10" y="30" width="10" height="10" style="fill:rgb(19,148,191)"/>
<rect x="20" y="30" width="10" height="10" style="fill:rgb(255,192,203)"/>
<rect x="30" y="30" width="10" height="10" style="fill:rgb(255,192,203)"/>
<rect x="0" y="40" width="10" height="10" style="fill:rgb(248,115,50)"/>
<rect x="10" y="40" width="10" height="10" style="fill:rgb(19,148,191)"/>
<rect x="20" y="40" width="10" height="10" style="fill:rgb(19,148,191)"/>
<rect x="30" y="40" width="10" height="10" style="fill:rgb(19,148,191)"/>
<rect x="48" y="0" width="10" height="10" style="fill:rgb(248,115,50)"/>
<rect x="58" y="0" width="10" height="10" style="fill:rgb(248,115,50)"/>
<rect x="68" y="0" width="10" height="10" style="fill:rgb(248,115,50)"/>
<rect x="78" y="0" width="10" height="10" style="fill:rgb(248,115,50)"/>
<rect x="48" y="10" width="10" height="10" style="fill:rgb(121,68,50)"/>
<rect x="58" y="10" width="10" height="10" style="fill:rgb(255,192,203)"/>
<rect x="68" y="10" width="10" height="10" style="fill:rgb(255,192,203)"/>
<rect x="78" y="10" width="10" height="10" style="fill:rgb(248,115,50)"/>
<rect x="48" y="20" width="10" height="10" style="fill:rgb(121,68,50)"/>
<rect x="58" y="20" width="10" height="10" style="fill:rgb(255,192,203)"/>
<rect x="68" y="20" width="10" height="10" style="fill:rgb(255,192,203)"/>
<rect x="78" y="20" width="10" height="10" style="fill:rgb(19,148,191)"/>
<rect x="48" y="30" width="10" height="10" style="fill:rgb(121,68,50)"/>
<rect x="58" y="30" width="10" height="10" style="fill:rgb(121,68,50)"/>
<rect x="68" y="30" width="10" height="10" style="fill:rgb(255,192,203)"/>
<rect x="78" y="30" width="10" height="10" style="fill:rgb(19,148,191)"/>
<rect x="48" y="40" width="10" height="10" style="fill:rgb(121,68,50)"/>
<rect x="58" y="40" width="10" height="10" style="fill:rgb(19,148,191)"/>
<rect x="68" y="40" width="10" height="10" style="fill:rgb(19,148,191)"/>
<rect x="78" y="40" width="10" height="10" style="fill:rgb(19,148,191)"/>
<rect x="96" y="0" width="10" height="10" style="fill:rgb(248,115,50)"/>
<rect x="106" y="0" width="10" height="10" style="fill:rgb(248,115,50)"/>
<rect x="116" y="0" width="10" height="10" style="fill:rgb(248,115,50)"/>
<rect x="126" y="0" width="10" height="10" style="fill:rgb(248,115,50)"/>
<rect x="96" y="10" width="10" height="10" style="fill:rgb(19,148,191)"/>
<rect x="106" y="10" width="10" height="10" style="fill:rgb(19,148,191)"/>
<rect x="116" y="10" width="10" height="10" style="fill:rgb(19,148,191)"/>
<rect x="126" y="10" width="10" height="10" style="fill:rgb(248,115,50)"/>
<rect x="96" y="20" width="10" height="10" style="fill:rgb(19,148,191)"/>
<rect x="106" y="20" width="10" height="10" style="fill:rgb(255,192,203)"/>
<rect x="116" y="20" width="10" height="10" style="fill:rgb(255,192,203)"/>
<rect x="126" y="20" width="10" height="10" style="fill:rgb(255,192,203)"/>
<rect x="96" y="30" width="10" height="10" style="fill:rgb(19,148,191)"/>
<rect x="106" y="30" width="10" height="10" style="fill:rgb(121,68,50)"/>
<rect x="116" y="30" width="10" height="10" style="fill:rgb(255,192,203)"/>
<rect x="126" y="30" width="10" height="10" style="fill:rgb(255,192,203)"/>
<rect x="96" y="40" width="10" height="10" style="fill:rgb(121,68,50)"/>
<rect x="106" y="40" width="10" height="10" style="fill:rgb(121,68,50)"/>
<rect x="116" y="40" width="10" height="10" style="fill:rgb(121,68,50)"/>
<rect x="126" y="40" width="10" height="10" style="fill:rgb(121,68,50)"/>
</svg>
