<svg xmlns="http://www.w3.org/2000/svg" width="1000" height="50">
<rect x="0" y="0" width="10" height="10" style="fill:rgb(61,35,112)"/>
<rect x="10" y="0" width="10" height="10" style="fill:rgb(61,35,112)"/>
<rect x="20" y="0" width="10" height="10" style="fill:rgb(61,35,112)"/>
<rect x="30" y="0" width="10" height="10" style="fill:rgb(223,207,59)"/>
<rect x="40" y="0" width="10" height="10" style="fill:rgb(223,207,59)"/>
<rect x="0" y="10" width="10" height="10" style="fill:rgb(248,115,50)"/>
<rect x="10" y="10" width="10" height="10" style="fill:rgb(248,115,50)"/>
<rect x="20" y="10" width="10" height="10" style="fill:rgb(61,35,112)"/>
<rect x="30" y="10" width="10" height="10" style="fill:rgb(61,35,112)"/>
<rect x="40" y="10" width="10" height="10" style="fill:rgb(223,207,59)"/>
<rect x="0" y="20" width="10" height="10" style="fill:rgb(248,115,50)"/>
<rect x="10" y="20" width="10" height="10" style="fill:rgb(19,148,191)"/>
<rect x="20" y="20" width="10" height="10" style="fill:rgb(31,183,223)"/>
<rect x="30" y="20" width="10" height="10" style="fill:rgb(223,207,59)"/>
<rect x="40" y="20" width="10" height="10" style="fill:rgb(223,207,59)"/>
<rect x="0" y="30" width="10" height="10" style="fill:rgb(248,115,50)"/>
<rect x="10" y="30" width="10" height="10" style="fill:rgb(19,148,191)"/>
<rect x="20" y="30" width="10" height="10" style="fill:rgb(31,183,223)"/>
<rect x="30" y="30" width="10" height="10" style="fill:rgb(31,183,223)"/>
<rect x="40" y="30" width="10" height="10" style="fill:rgb(31,183,223)"/>
<rect x="0" y="40" width="10" height="10" style="fill:rgb(248,115,50)"/>
<rect x="10" y="40" width="10" height="10" style="fill:rgb(19,148,191)"/>
<rect x="20" y="40" width="10" height="10" style="fill:rgb(19,148,191)"/>
<rect x="30" y="40" width="10" height="10" style="fill:rgb(19,148,191)"/>
<rect x="40" y="40" width="10" height="10" style="fill:rgb(31,183,223)"/>
<rect x="58" y="0" width="10" height="10" style="fill:rgb(248,115,50)"/>
<rect x="68" y="0" width="10" height="10" style="fill:rgb(248,115,50)"/>
<rect x="78" y="0" width="10" height="10" style="fill:rgb(248,115,50)"/>
<rect x="88" y="0" width="10" height="10" style="fill:rgb(248,115,50)"/>
<rect x="98" y="0" width="10" height="10" style="fill:rgb(61,35,112)"/>
<rect x="58" y="10" width="10" height="10" style="fill:rgb(19,148,191)"/>
<rect x="68" y="10" width="10" height="10" style="fill:rgb(19,148,191)"/>
<rect x="78" y="10" width="10" height="10" style="fill:rgb(19,148,191)"/>
<rect x="88" y="10" width="10" height="10" style="fill:rgb(248,115,50)"/>
<rect x="98" y="10" width="10" height="10" style="fill:rgb(61,35,112)"/>
<rect x="58" y="20" width="10" height="10" style="fill:rgb(19,148,191)"/>
<rect x="68" y="20" width="10" height="10" style="fill:rgb(31,183,223)"/>
<rect x="78" y="20" width="10" height="10" style="fill:rgb(31,183,223)"/>
<rect x="88" y="20" width="10" height="10" style="fill:rgb(61,35,112)"/>
<rect x="98" y="20" width="10" height="10" style="fill:rgb(61,35,112)"/>
<rect x="58" y="30" width="10" height="10" style="fill:rgb(19,148,191)"/>
<rect x="68" y="30" width="10" height="10" style="fill:rgb(31,183,223)"/>
<rect x="78" y="30" width="10" height="10" style="fill:rgb(223,207,59)"/>
<rect x="88" y="30" width="10" height="10" style="fill:rgb(61,35,112)"/>
<rect x="98" y="30" width="10" height="10" style="fill:rgb(223,207,59)"/>
<rect x="58" y="40" width="10" height="10" style="fill:rgb(31,183,223)"/>
<rect x="68" y="40" width="10" height="10" style="fill:rgb(31,183,223)"/>
<rect x="78" y="40" width="10" height="10" style="fill:rgb(223,207,59)"/>
<rect x="88" y="40" width="10" height="10" style="fill:rgb(223,207,59)"/>
<rect x="98" y="40" width="10" height="10" style="fill:rgb(223,207,59)"/>
</svg>
