<svg xmlns="http://www.w3.org/2000/svg" width="1000" height="50">
<rect x="0" y="0" width="10" height="10" style="fill:rgb(248,115,50)"/>
<rect x="10" y="0" width="10" height="10" style="fill:rgb(248,115,50)"/>
<rect x="20" y="0" width="10" height="10" style="fill:rgb(19,148,191)"/>
<rect x="30" y="0" width="10" height="10" style="fill:rgb(19,148,191)"/>
<rect x="40" y="0" width="10" height="10" style="fill:rgb(19,148,191)"/>
<rect x="0" y="10" width="10" height="10" style="fill:rgb(248,115,50)"/>
<rect x="10" y="10" width="10" height="10" style="fill:rgb(255,192,203)"/>
<rect x="20" y="10" width="10" height="10" style="fill:rgb(255,192,203)"/>
<rect x="30" y="10" width="10" height="10" style="fill:rgb(61,35,112)"/>
<rect x="40" y="10" width="10" height="10" style="fill:rgb(19,148,191)"/>
<rect x="0" y="20" width="10" height="10" style="fill:rgb(248,115,50)"/>
<rect x="10" y="20" width="10" height="10" style="fill:rgb(255,192,203)"/>
<rect x="20" y="20" width="10" height="10" style="fill:rgb(255,192,203)"/>
<rect x="30" y="20" width="10" height="10" style="fill:rgb(61,35,112)"/>
<rect x="40" y="20" width="10" height="10" style="fill:rgb(19,148,191)"/>
<rect x="0" y="30" width="10" height="10" style="fill:rgb(248,115,50)"/>
<rect x="10" y="30" width="10" height="10" style="fill:rgb(121,68,50)"/>
<rect x="20" y="30" width="10" height="10" style="fill:rgb(255,192,203)"/>
<rect x="30" y="30" width="10" height="10" style="fill:rgb(61,35,112)"/>
<rect x="40" y="30" width="10" height="10" style="fill:rgb(61,35,112)"/>
<rect x="0" y="40" width="10" height="10" style="fill:rgb(121,68,50)"/>
<rect x="10" y="40" width="10" height="10" style="fill:rgb(121,68,50)"/>
<rect x="20" y="40" width="10" height="10" style="fill:rgb(121,68,50)"/>
<rect x="30" y="40" width="10" height="10" style="fill:rgb(121,68,50)"/>
<rect x="40" y="40" width="10" height="10" style="fill:rgb(61,35,112)"/>
<rect x="58" y="0" width="10" height="10" style="fill:rgb(248,115,50)"/>
<rect x="68" y="0" width="10" height="10" style="fill:rgb(248,115,50)"/>
<rect x="78" y="0" width="10" height="10" style="fill:rgb(19,148,191)"/>
<rect x="88" y="0" width="10" height="10" style="fill:rgb(19,148,191)"/>
<rect x="98" y="0" width="10" height="10" style="fill:rgb(19,148,191)"/>
<rect x="58" y="10" width="10" height="10" style="fill:rgb(248,115,50)"/>
<rect x="68" y="10" width="10" height="10" style="fill:rgb(255,192,203)"/>
<rect x="78" y="10" width="10" height="10" style="fill:rgb(255,192,203)"/>
<rect x="88" y="10" width="10" height="10" style="fill:rgb(61,35,112)"/>
<rect x="98" y="10" width="10" height="10" style="fill:rgb(19,148,191)"/>
<rect x="58" y="20" width="10" height="10" style="fill:rgb(248,115,50)"/>
<rect x="68" y="20" width="10" height="10" style="fill:rgb(255,192,203)"/>
<rect x="78" y="20" width="10" height="10" style="fill:rgb(255,192,203)"/>
<rect x="88" y="20" width="10" height="10" style="fill:rgb(61,35,112)"/>
<rect x="98" y="20" width="10" height="10" style="fill:rgb(19,148,191)"/>
<rect x="58" y="30" width="10" height="10" style="fill:rgb(248,115,50)"/>
<rect x="68" y="30" width="10" height="10" style="fill:rgb(255,192,203)"/>
<rect x="78" y="30" width="10" height="10" style="fill:rgb(121,68,50)"/>
<rect x="88" y="30" width="10" height="10" style="fill:rgb(61,35,112)"/>
<rect x="98" y="30" width="10" height="10" style="fill:rgb(61,35,112)"/>
<rect x="58" y="40" width="10" height="10" style="fill:rgb(121,68,50)"/>
<rect x="68" y="40" width="10" height="10" style="fill:rgb(121,68,50)"/>
<rect x="78" y="40" width="10" height="10" style="fill:rgb(121,68,50)"/>
<rect x="88" y="40" width="10" height="10" style="fill:rgb(121,68,50)"/>
<rect x="98" y="40" width="10" height="10" style="fill:rgb(61,35,112)"/>
<rect x="116" y="0" width="10" height="10" style="fill:rgb(121,68,50)"/>
<rect x="126" y="0" width="10" height="10" style="fill:rgb(121,68,50)"/>
<rect x="136" y="0" width="10" height="10" style="fill:rgb(121,68,50)"/>
<rect x="146" y="0" width="10" height="10" style="fill:rgb(121,68,50)"/>
<rect x="156" y="0" width="10" height="10" style="fill:rgb(61,35,112)"/>
<rect x="116" y="10" width="10" height="10" style="fill:rgb(248,115,50)"/>
<rect x="126" y="10" width="10" height="10" style="fill:rgb(248,115,50)"/>
<rect x="136" y="10" width="10" height="10" style="fill:rgb(121,68,50)"/>
<rect x="146" y="10" width="10" height="10" style="fill:rgb(61,35,112)"/>
<rect x="156" y="10" width="10" height="10" style="fill:rgb(61,35,112)"/>
<rect x="116" y="20" width="10" height="10" style="fill:rgb(248,115,50)"/>
<rect x="126" y="20" width="10" height="10" style="fill:rgb(255,192,203)"/>
<rect x="136" y="20" width="10" height="10" style="fill:rgb(255,192,203)"/>
<rect x="146" y="20" width="10" height="10" style="fill:rgb(61,35,112)"/>
<rect x="156" y="20" width="10" height="10" style="fill:rgb(19,148,191)"/>
<rect x="116" y="30" width="10" height="10" style="fill:rgb(248,115,50)"/>
<rect x="126" y="30" width="10" height="10" style="fill:rgb(255,192,203)"/>
<rect x="136" y="30" width="10" height="10" style="fill:rgb(255,192,203)"/>
<rect x="146" y="30" width="10" height="10" style="fill:rgb(61,35,112)"/>
<rect x="156" y="30" width="10" height="10" style="fill:rgb(19,148,191)"/>
<rect x="116" y="40" width="10" height="10" style="fill:rgb(248,115,50)"/>
<rect x="126" y="40" width="10" height="10" style="fill:rgb(255,192,203)"/>
<rect x="136" y="40" width="10" height="10" style="fill:rgb(19,148,191)"/>
<rect x="146" y="40" width="10" height="10" style="fill:rgb(19,148,191)"/>
<rect x="156" y="40" width="10" height="10" style="fill:rgb(19,148,191)"/>
<rect x="174" y="0" width="10" height="10" style="fill:rgb(248,115,50)"/>
<rect x="184" y="0" width="10" height="10" style="fill:rgb(248,115,50)"/>
<rect x="194" y="0" width="10" height="10" style="fill:rgb(248,115,50)"/>
<rect x="204" y="0" width="10" height="10" style="fill:rgb(248,115,50)"/>
<rect x="214" y="0" width="10" height="10" style="fill:rgb(121,68,50)"/>
<rect x="174" y="10" width="10" height="10" style="fill:rgb(255,192,203)"/>
<rect x="184" y="10" width="10" height="10" style="fill:rgb(255,192,203)"/>
<rect x="194" y="10" width="10" height="10" style="fill:rgb(255,192,203)"/>
<rect x="204" y="10" width="10" height="10" style="fill:rgb(248,115,50)"/>
<rect x="214" y="10" width="10" height="10" style="fill:rgb(121,68,50)"/>
<rect x="174" y="20" width="10" height="10" style="fill:rgb(19,148,191)"/>
<rect x="184" y="20" width="10" height="10" style="fill:rgb(255,192,203)"/>
<rect x="194" y="20" width="10" height="10" style="fill:rgb(255,192,203)"/>
<rect x="204" y="20" width="10" height="10" style="fill:rgb(121,68,50)"/>
<rect x="214" y="20" width="10" height="10" style="fill:rgb(121,68,50)"/>
<rect x="174" y="30" width="10" height="10" style="fill:rgb(19,148,191)"/>
<rect x="184" y="30" width="10" height="10" style="fill:rgb(61,35,112)"/>
<rect x="194" y="30" width="10" height="10" style="fill:rgb(61,35,112)"/>
<rect x="204" y="30" width="10" height="10" style="fill:rgb(61,35,112)"/>
<rect x="214" y="30" width="10" height="10" style="fill:rgb(121,68,50)"/>
<rect x="174" y="40" width="10" height="10" style="fill:rgb(19,148,191)"/>
<rect x="184" y="40" width="10" height="10" style="fill:rgb(19,148,191)"/>
<rect x="194" y="40" width="10" height="10" style="fill:rgb(19,148,191)"/>
<rect x="204" y="40" width="10" height="10" style="fill:rgb(61,35,112)"/>
<rect x="214" y="40" width="10" height="10" style="fill:rgb(61,35,112)"/>
<rect x="232" y="0" width="10" height="10" style="fill:rgb(121,68,50)"/>
<rect x="242" y="0" width="10" height="10" style="fill:rgb(248,115,50)"/>
<rect x="252" y="0" width="10" height="10" style="fill:rgb(248,115,50)"/>
<rect x="262" y="0" width="10" height="10" style="fill:rgb(248,115,50)"/>
<rect x="272" y="0" width="10" height="10" style="fill:rgb(248,115,50)"/>
<rect x="232" y="10" width="10" height="10" style="fill:rgb(121,68,50)"/>
<rect x="242" y="10" width="10" height="10" style="fill:rgb(121,68,50)"/>
<rect x="252" y="10" width="10" height="10" style="fill:rgb(255,192,203)"/>
<rect x="262" y="10" width="10" height="10" style="fill:rgb(255,192,203)"/>
<rect x="272" y="10" width="10" height="10" style="fill:rgb(248,115,50)"/>
<rect x="232" y="20" width="10" height="10" style="fill:rgb(121,68,50)"/>
<rect x="242" y="20" width="10" height="10" style="fill:rgb(255,192,203)"/>
<rect x="252" y="20" width="10" height="10" style="fill:rgb(255,192,203)"/>
<rect x="262" y="20" width="10" height="10" style="fill:rgb(255,192,203)"/>
<rect x="272" y="20" width="10" height="10" style="fill:rgb(19,148,191)"/>
<rect x="232" y="30" width="10" height="10" style="fill:rgb(121,68,50)"/>
<rect x="242" y="30" width="10" height="10" style="fill:rgb(61,35,112)"/>
<rect x="252" y="30" width="10" height="10" style="fill:rgb(61,35,112)"/>
<rect x="262" y="30" width="10" height="10" style="fill:rgb(61,35,112)"/>
<rect x="272" y="30" width="10" height="10" style="fill:rgb(19,148,191)"/>
<rect x="232" y="40" width="10" height="10" style="fill:rgb(61,35,112)"/>
<rect x="242" y="40" width="10" height="10" style="fill:rgb(61,35,112)"/>
<rect x="252" y="40" width="10" height="10" style="fill:rgb(19,148,191)"/>
<rect x="262" y="40" width="10" height="10" style="fill:rgb(19,148,191)"/>
<rect x="272" y="40" width="10" height="10" style="fill:rgb(19,148,191)"/>
<rect x="290" y="0" width="10" height="10" style="fill:rgb(121,68,50)"/>
<rect x="300" y="0" width="10" height="10" style="fill:rgb(248,115,50)"/>
<rect x="310" y="0" width="10" height="10" style="fill:rgb(248,115,50)"/>
<rect x="320" y="0" width="10" height="10" style="fill:rgb(248,115,50)"/>
<rect x="330" y="0" width="10" height="10" style="fill:rgb(248,115,50)"/>
<rect x="290" y="10" width="10" height="10" style="fill:rgb(121,68,50)"/>
<rect x="300" y="10" width="10" height="10" style="fill:rgb(255,192,203)"/>
<rect x="310" y="10" width="10" height="10" style="fill:rgb(255,192,203)"/>
<rect x="320" y="10" width="10" height="10" style="fill:rgb(255,192,203)"/>
<rect x="330" y="10" width="10" height="10" style="fill:rgb(248,115,50)"/>
<rect x="290" y="20" width="10" height="10" style="fill:rgb(121,68,50)"/>
<rect x="300" y="20" width="10" height="10" style="fill:rgb(121,68,50)"/>
<rect x="310" y="20" width="10" height="10" style="fill:rgb(255,192,203)"/>
<rect x="320" y="20" width="10" height="10" style="fill:rgb(255,192,203)"/>
<rect x="330" y="20" width="10" height="10" style="fill:rgb(19,148,191)"/>
<rect x="290" y="30" width="10" height="10" style="fill:rgb(121,68,50)"/>
<rect x="300" y="30" width="10" height="10" style="fill:rgb(61,35,112)"/>
<rect x="310" y="30" width="10" height="10" style="fill:rgb(61,35,112)"/>
<rect x="320" y="30" width="10" height="10" style="fill:rgb(61,35,112)"/>
<rect x="330" y="30" width="10" height="10" style="fill:rgb(19,148,191)"/>
<rect x="290" y="40" width="10" height="10" style="fill:rgb(61,35,112)"/>
<rect x="300" y="40" width="10" height="10" style="fill:rgb(61,35,112)"/>
<rect x="310" y="40" width="10" height="10" style="fill:rgb(19,148,191)"/>
<rect x="320" y="40" width="10" height="10" style="fill:rgb(19,148,191)"/>
<rect x="330" y="40" width="10" height="10" style="fill:rgb(19,148,191)"/>
</svg>
