<svg width="320" height="70" xmlns="http://www.w3.org/2000/svg">
    <g transform="translate(10,10) rotate(90) scale(1)" style="fill:rgb(60,123,191);stroke-width:.05;stroke:#000">
        <polygon points="-5,5 -5,-5 45,-5 45,5"/>
    </g>    
    
    <g transform="translate(30,40)  scale(1)" style="fill:rgb(244,117,33);stroke-width:.05;stroke:#000">
        <polygon points="-5,5 -5,-35 15,-35 15,-25 5,-25 5,5"/>
    </g>    
    
    <g transform="translate(60,10)  scale(1)" style="fill:rgb(15,160,219);stroke-width:.05;stroke:#000">
        <polygon points="-5,-5 25,-5 25,25 15,25 15,5 -5,5"/>
    </g>    
    
    <g transform="translate(100,10) rotate(90) scale(1)" style="fill:rgb(208,108,170);stroke-width:.05;stroke:#000">
        <polygon points="-5,5 -5,-5 5,-5 5,-15 25,-15 25,5"/>
    </g>    
    
    <g transform="translate(130,10) rotate(90) scale(1)" style="fill:rgb(255,234,1);stroke-width:.05;stroke:#000">
        <polygon points="-5,5 -5,-15 25,-15 25,5 15,5 15,-5 5,-5 5,5"/>
    </g>    
    
    <g transform="translate(180,30)  scale(1)" style="fill:rgb(0,176,211);stroke-width:.05;stroke:#000">
        <polygon points="5,5 -15,5 -15,-15 -25,-15 -25,-25 -5,-25 -5,-5 5,-5"/>
    </g>    
    
    <g transform="translate(200,10)  scale(1)" style="fill:rgb(0,167,78);stroke-width:.05;stroke:#000">
        <polygon points="-5,5 -5,-5 25,-5 25,5 15,5 15,25 5,25 5,5"/>
    </g>    
    
    <g transform="translate(240,30)  scale(1)" style="fill:rgb(119,192,66);stroke-width:.05;stroke:#000">
        <polygon points="-5,5 -5,-5 5,-5 5,-15 15,-15 15,-25 25,-25 25,-5 15,-5 15,5"/>
    </g>    
    
    <g transform="translate(290,10)  scale(1)" style="fill:rgb(237,26,56);stroke-width:.05;stroke:#000">
        <polygon points="-5,-5 5,-5 5,5 15,5 15,15 5,15 5,25 -5,25 -5,15 -15,15 -15,5 -5,5"/>
    </g>    
    </svg>